<?xml version="1.0" encoding="UTF-8" standalone="no"?>
<!-- Created with Inkscape (http://www.inkscape.org/) -->

<svg
   xmlns:dc="http://purl.org/dc/elements/1.1/"
   xmlns:cc="http://creativecommons.org/ns#"
   xmlns:rdf="http://www.w3.org/1999/02/22-rdf-syntax-ns#"
   xmlns:svg="http://www.w3.org/2000/svg"
   xmlns="http://www.w3.org/2000/svg"
   xmlns:xlink="http://www.w3.org/1999/xlink"
   xmlns:sodipodi="http://sodipodi.sourceforge.net/DTD/sodipodi-0.dtd"
   xmlns:inkscape="http://www.inkscape.org/namespaces/inkscape"
   width="744.09003"
   height="660"
   id="svg2"
   version="1.1"
   inkscape:version="0.48.4 r9939"
   sodipodi:docname="tree.svg"
   inkscape:export-filename="/home/cefleet/Development/games/Teddy/src/assets/tree.png"
   inkscape:export-xdpi="145.09091"
   inkscape:export-ydpi="145.09091">
  <defs
     id="defs4">
    <linearGradient
       id="linearGradient4510">
      <stop
         style="stop-color:#b1b1b1;stop-opacity:1;"
         offset="0"
         id="stop4512" />
      <stop
         style="stop-color:#acacac;stop-opacity:0;"
         offset="1"
         id="stop4514" />
    </linearGradient>
    <linearGradient
       inkscape:collect="always"
       id="linearGradient4424">
      <stop
         style="stop-color:#b06117;stop-opacity:1;"
         offset="0"
         id="stop4426" />
      <stop
         style="stop-color:#b06117;stop-opacity:0;"
         offset="1"
         id="stop4428" />
    </linearGradient>
    <linearGradient
       inkscape:collect="always"
       id="linearGradient4386">
      <stop
         style="stop-color:#822900;stop-opacity:1;"
         offset="0"
         id="stop4388" />
      <stop
         style="stop-color:#822900;stop-opacity:0;"
         offset="1"
         id="stop4390" />
    </linearGradient>
    <linearGradient
       inkscape:collect="always"
       id="linearGradient4235">
      <stop
         style="stop-color:#23690f;stop-opacity:1;"
         offset="0"
         id="stop4237" />
      <stop
         style="stop-color:#23690f;stop-opacity:0;"
         offset="1"
         id="stop4239" />
    </linearGradient>
    <linearGradient
       inkscape:collect="always"
       id="linearGradient4154">
      <stop
         style="stop-color:#482a0e;stop-opacity:1;"
         offset="0"
         id="stop4156" />
      <stop
         style="stop-color:#482a0e;stop-opacity:0;"
         offset="1"
         id="stop4158" />
    </linearGradient>
    <inkscape:path-effect
       effect="skeletal"
       id="path-effect3886"
       is_visible="true"
       pattern="m 6.0609153,-16.162441 0,10.0000003 9.9999997,-5.0000003 z"
       copytype="single_stretched"
       prop_scale="1"
       scale_y_rel="false"
       spacing="0"
       normal_offset="0"
       tang_offset="0"
       prop_units="false"
       vertical_pattern="false"
       fuse_tolerance="0" />
    <inkscape:path-effect
       effect="skeletal"
       id="path-effect3882"
       is_visible="true"
       pattern="m 6.0609153,-16.162441 0,10.0000003 9.9999997,-5.0000003 z"
       copytype="single_stretched"
       prop_scale="1"
       scale_y_rel="false"
       spacing="0"
       normal_offset="0"
       tang_offset="0"
       prop_units="false"
       vertical_pattern="false"
       fuse_tolerance="0" />
    <inkscape:path-effect
       effect="skeletal"
       id="path-effect3878"
       is_visible="true"
       pattern="m 6.0609153,-16.162441 0,10.0000003 9.9999997,-5.0000003 z"
       copytype="single_stretched"
       prop_scale="1"
       scale_y_rel="false"
       spacing="0"
       normal_offset="0"
       tang_offset="0"
       prop_units="false"
       vertical_pattern="false"
       fuse_tolerance="0" />
    <inkscape:path-effect
       effect="skeletal"
       id="path-effect3874"
       is_visible="true"
       pattern="m 6.0609153,-16.162441 0,10.0000003 9.9999997,-5.0000003 z"
       copytype="single_stretched"
       prop_scale="1"
       scale_y_rel="false"
       spacing="0"
       normal_offset="0"
       tang_offset="0"
       prop_units="false"
       vertical_pattern="false"
       fuse_tolerance="0" />
    <inkscape:path-effect
       effect="skeletal"
       id="path-effect3870"
       is_visible="true"
       pattern="m 6.0609153,-16.162441 0,10.0000003 9.9999997,-5.0000003 z"
       copytype="single_stretched"
       prop_scale="1"
       scale_y_rel="false"
       spacing="0"
       normal_offset="0"
       tang_offset="0"
       prop_units="false"
       vertical_pattern="false"
       fuse_tolerance="0" />
    <inkscape:path-effect
       effect="skeletal"
       id="path-effect3866"
       is_visible="true"
       pattern="m 6.0609153,-16.162441 0,10.0000003 9.9999997,-5.0000003 z"
       copytype="single_stretched"
       prop_scale="1"
       scale_y_rel="false"
       spacing="0"
       normal_offset="0"
       tang_offset="0"
       prop_units="false"
       vertical_pattern="false"
       fuse_tolerance="0" />
    <inkscape:path-effect
       effect="skeletal"
       id="path-effect3862"
       is_visible="true"
       pattern="m 6.0609153,-16.162441 0,10.0000003 9.9999997,-5.0000003 z"
       copytype="single_stretched"
       prop_scale="1"
       scale_y_rel="false"
       spacing="0"
       normal_offset="0"
       tang_offset="0"
       prop_units="false"
       vertical_pattern="false"
       fuse_tolerance="0" />
    <linearGradient
       inkscape:collect="always"
       id="linearGradient3805">
      <stop
         style="stop-color:#bbffa9;stop-opacity:1;"
         offset="0"
         id="stop3807" />
      <stop
         style="stop-color:#bbffa9;stop-opacity:0;"
         offset="1"
         id="stop3809" />
    </linearGradient>
    <linearGradient
       inkscape:collect="always"
       id="linearGradient3797">
      <stop
         style="stop-color:#56d533;stop-opacity:1;"
         offset="0"
         id="stop3799" />
      <stop
         style="stop-color:#56d533;stop-opacity:0;"
         offset="1"
         id="stop3801" />
    </linearGradient>
    <inkscape:path-effect
       effect="skeletal"
       id="path-effect2987"
       is_visible="true"
       pattern="M 0,0 0,10 10,5 z"
       copytype="single_stretched"
       prop_scale="1"
       scale_y_rel="false"
       spacing="0"
       normal_offset="0"
       tang_offset="0"
       prop_units="false"
       vertical_pattern="false"
       fuse_tolerance="0" />
    <linearGradient
       inkscape:collect="always"
       xlink:href="#linearGradient3797"
       id="linearGradient3803"
       x1="277.14285"
       y1="180.93361"
       x2="331.42856"
       y2="315.21933"
       gradientUnits="userSpaceOnUse"
       gradientTransform="matrix(0.88841765,0.0685838,-0.08332475,1.0793682,15.960291,7.167917)" />
    <linearGradient
       inkscape:collect="always"
       xlink:href="#linearGradient3805"
       id="linearGradient3811"
       x1="360.62445"
       y1="109.88985"
       x2="374.7666"
       y2="151.30612"
       gradientUnits="userSpaceOnUse"
       gradientTransform="matrix(0.87511334,-0.19379892,0.19379892,0.87511334,-21.312163,183.25878)" />
    <linearGradient
       inkscape:collect="always"
       xlink:href="#linearGradient3797"
       id="linearGradient3846"
       x1="474.01566"
       y1="388.66687"
       x2="530.0249"
       y2="473.51968"
       gradientUnits="userSpaceOnUse"
       gradientTransform="matrix(0.89631545,0,0,0.89631545,80.228113,30.492494)" />
    <inkscape:path-effect
       effect="skeletal"
       id="path-effect3886-2"
       is_visible="true"
       pattern="m 7.8042673,3.9588087 0,10.0000003 9.9999997,-5.0000003 z"
       copytype="single_stretched"
       prop_scale="1"
       scale_y_rel="false"
       spacing="0"
       normal_offset="0"
       tang_offset="0"
       prop_units="false"
       vertical_pattern="false"
       fuse_tolerance="0" />
    <inkscape:path-effect
       effect="skeletal"
       id="path-effect3882-1"
       is_visible="true"
       pattern="m 7.8042673,3.9588087 0,10.0000003 9.9999997,-5.0000003 z"
       copytype="single_stretched"
       prop_scale="1"
       scale_y_rel="false"
       spacing="0"
       normal_offset="0"
       tang_offset="0"
       prop_units="false"
       vertical_pattern="false"
       fuse_tolerance="0" />
    <inkscape:path-effect
       effect="skeletal"
       id="path-effect3878-8"
       is_visible="true"
       pattern="m 7.8042673,3.9588087 0,10.0000003 9.9999997,-5.0000003 z"
       copytype="single_stretched"
       prop_scale="1"
       scale_y_rel="false"
       spacing="0"
       normal_offset="0"
       tang_offset="0"
       prop_units="false"
       vertical_pattern="false"
       fuse_tolerance="0" />
    <inkscape:path-effect
       effect="skeletal"
       id="path-effect3874-9"
       is_visible="true"
       pattern="m 7.8042673,3.9588087 0,10.0000003 9.9999997,-5.0000003 z"
       copytype="single_stretched"
       prop_scale="1"
       scale_y_rel="false"
       spacing="0"
       normal_offset="0"
       tang_offset="0"
       prop_units="false"
       vertical_pattern="false"
       fuse_tolerance="0" />
    <inkscape:path-effect
       effect="skeletal"
       id="path-effect3870-1"
       is_visible="true"
       pattern="m 7.8042673,3.9588087 0,10.0000003 9.9999997,-5.0000003 z"
       copytype="single_stretched"
       prop_scale="1"
       scale_y_rel="false"
       spacing="0"
       normal_offset="0"
       tang_offset="0"
       prop_units="false"
       vertical_pattern="false"
       fuse_tolerance="0" />
    <inkscape:path-effect
       effect="skeletal"
       id="path-effect3866-2"
       is_visible="true"
       pattern="m 7.8042673,3.9588087 0,10.0000003 9.9999997,-5.0000003 z"
       copytype="single_stretched"
       prop_scale="1"
       scale_y_rel="false"
       spacing="0"
       normal_offset="0"
       tang_offset="0"
       prop_units="false"
       vertical_pattern="false"
       fuse_tolerance="0" />
    <inkscape:path-effect
       effect="skeletal"
       id="path-effect3862-8"
       is_visible="true"
       pattern="m 7.8042673,3.9588087 0,10.0000003 9.9999997,-5.0000003 z"
       copytype="single_stretched"
       prop_scale="1"
       scale_y_rel="false"
       spacing="0"
       normal_offset="0"
       tang_offset="0"
       prop_units="false"
       vertical_pattern="false"
       fuse_tolerance="0" />
    <filter
       inkscape:collect="always"
       id="filter4001"
       color-interpolation-filters="sRGB">
      <feGaussianBlur
         inkscape:collect="always"
         stdDeviation="0.56776317"
         id="feGaussianBlur4003" />
    </filter>
    <filter
       inkscape:collect="always"
       id="filter4005"
       color-interpolation-filters="sRGB">
      <feGaussianBlur
         inkscape:collect="always"
         stdDeviation="0.56776317"
         id="feGaussianBlur4007" />
    </filter>
    <filter
       inkscape:collect="always"
       id="filter4009"
       color-interpolation-filters="sRGB">
      <feGaussianBlur
         inkscape:collect="always"
         stdDeviation="0.56776317"
         id="feGaussianBlur4011" />
    </filter>
    <filter
       inkscape:collect="always"
       id="filter4013"
       color-interpolation-filters="sRGB">
      <feGaussianBlur
         inkscape:collect="always"
         stdDeviation="0.56776317"
         id="feGaussianBlur4015" />
    </filter>
    <filter
       inkscape:collect="always"
       id="filter4017"
       color-interpolation-filters="sRGB">
      <feGaussianBlur
         inkscape:collect="always"
         stdDeviation="0.56776317"
         id="feGaussianBlur4019" />
    </filter>
    <filter
       inkscape:collect="always"
       id="filter4021"
       color-interpolation-filters="sRGB">
      <feGaussianBlur
         inkscape:collect="always"
         stdDeviation="0.56776317"
         id="feGaussianBlur4023" />
    </filter>
    <filter
       inkscape:collect="always"
       id="filter4025"
       color-interpolation-filters="sRGB">
      <feGaussianBlur
         inkscape:collect="always"
         stdDeviation="0.56776317"
         id="feGaussianBlur4027" />
    </filter>
    <linearGradient
       inkscape:collect="always"
       xlink:href="#linearGradient3797-1"
       id="linearGradient3846-6"
       x1="474.01566"
       y1="388.66687"
       x2="530.0249"
       y2="473.51968"
       gradientUnits="userSpaceOnUse"
       gradientTransform="matrix(0.44242478,0,0,0.44242478,164.47721,258.0467)" />
    <linearGradient
       inkscape:collect="always"
       id="linearGradient3797-1">
      <stop
         style="stop-color:#56d533;stop-opacity:1;"
         offset="0"
         id="stop3799-0" />
      <stop
         style="stop-color:#56d533;stop-opacity:0;"
         offset="1"
         id="stop3801-6" />
    </linearGradient>
    <linearGradient
       inkscape:collect="always"
       xlink:href="#linearGradient3797-1-1"
       id="linearGradient3846-6-8"
       x1="474.01566"
       y1="388.66687"
       x2="530.0249"
       y2="473.51968"
       gradientUnits="userSpaceOnUse"
       gradientTransform="matrix(0.44242478,0,0,0.44242478,-36.040487,256.76138)" />
    <linearGradient
       inkscape:collect="always"
       id="linearGradient3797-1-1">
      <stop
         style="stop-color:#56d533;stop-opacity:1;"
         offset="0"
         id="stop3799-0-0" />
      <stop
         style="stop-color:#56d533;stop-opacity:0;"
         offset="1"
         id="stop3801-6-1" />
    </linearGradient>
    <linearGradient
       inkscape:collect="always"
       xlink:href="#linearGradient3797-1-6"
       id="linearGradient3846-6-3"
       x1="474.01566"
       y1="388.66687"
       x2="530.0249"
       y2="473.51968"
       gradientUnits="userSpaceOnUse"
       gradientTransform="matrix(0.30307116,0,0,0.33690609,375.10827,306.94563)" />
    <linearGradient
       inkscape:collect="always"
       id="linearGradient3797-1-6">
      <stop
         style="stop-color:#56d533;stop-opacity:1;"
         offset="0"
         id="stop3799-0-3" />
      <stop
         style="stop-color:#56d533;stop-opacity:0;"
         offset="1"
         id="stop3801-6-4" />
    </linearGradient>
    <linearGradient
       inkscape:collect="always"
       xlink:href="#linearGradient4154"
       id="linearGradient4160"
       x1="304.77536"
       y1="504.85953"
       x2="312.93292"
       y2="560.92297"
       gradientUnits="userSpaceOnUse"
       gradientTransform="matrix(1,0,0,1.0200065,-0.91823861,-13.680867)" />
    <linearGradient
       inkscape:collect="always"
       xlink:href="#linearGradient3797-1-1-6"
       id="linearGradient3846-6-8-9"
       x1="474.01566"
       y1="388.66687"
       x2="530.0249"
       y2="473.51968"
       gradientUnits="userSpaceOnUse"
       gradientTransform="matrix(0.38995309,0.2089887,-0.2089887,0.38995309,169.1073,219.41882)" />
    <linearGradient
       inkscape:collect="always"
       id="linearGradient3797-1-1-6">
      <stop
         style="stop-color:#56d533;stop-opacity:1;"
         offset="0"
         id="stop3799-0-0-6" />
      <stop
         style="stop-color:#56d533;stop-opacity:0;"
         offset="1"
         id="stop3801-6-1-7" />
    </linearGradient>
    <linearGradient
       inkscape:collect="always"
       xlink:href="#linearGradient4235"
       id="linearGradient4241"
       x1="351.53308"
       y1="487.68692"
       x2="338.40109"
       y2="386.67166"
       gradientUnits="userSpaceOnUse"
       gradientTransform="matrix(1,0,0,1.1586615,0,-77.015021)" />
    <linearGradient
       inkscape:collect="always"
       xlink:href="#linearGradient4424-6"
       id="linearGradient4430-0"
       x1="163.37497"
       y1="606.58398"
       x2="262.01102"
       y2="606.58398"
       gradientUnits="userSpaceOnUse" />
    <linearGradient
       inkscape:collect="always"
       id="linearGradient4424-6">
      <stop
         style="stop-color:#b06117;stop-opacity:1;"
         offset="0"
         id="stop4426-9" />
      <stop
         style="stop-color:#b06117;stop-opacity:0;"
         offset="1"
         id="stop4428-6" />
    </linearGradient>
    <linearGradient
       inkscape:collect="always"
       xlink:href="#linearGradient4424-6"
       id="linearGradient4580"
       gradientUnits="userSpaceOnUse"
       gradientTransform="matrix(-1.445471,0,0,0.97578819,733.93196,321.24634)"
       x1="163.37497"
       y1="606.58398"
       x2="262.01102"
       y2="606.58398" />
    <linearGradient
       inkscape:collect="always"
       xlink:href="#linearGradient4424"
       id="linearGradient4583"
       gradientUnits="userSpaceOnUse"
       x1="163.37497"
       y1="606.58398"
       x2="262.01102"
       y2="606.58398"
       gradientTransform="matrix(0.97578819,0,0,0.97578819,15.94841,318.98132)" />
    <radialGradient
       inkscape:collect="always"
       xlink:href="#linearGradient4386"
       id="radialGradient4587"
       gradientUnits="userSpaceOnUse"
       gradientTransform="matrix(0.97578819,0,0,0.64723677,23.83397,519.34228)"
       cx="378.56937"
       cy="649.89166"
       fx="378.56937"
       fy="649.89166"
       r="85.544975" />
    <radialGradient
       inkscape:collect="always"
       xlink:href="#linearGradient4386"
       id="radialGradient4590"
       gradientUnits="userSpaceOnUse"
       gradientTransform="matrix(1.2939523,0.07231006,-0.05038403,0.90159699,-21.269057,344.59814)"
       cx="228.83269"
       cy="628.09808"
       fx="228.83269"
       fy="628.09808"
       r="68.157524" />
  </defs>
  <sodipodi:namedview
     id="base"
     pagecolor="#ffffff"
     bordercolor="#666666"
     borderopacity="1.0"
     inkscape:pageopacity="0.0"
     inkscape:pageshadow="2"
     inkscape:zoom="0.49497475"
     inkscape:cx="513.46882"
     inkscape:cy="420.34455"
     inkscape:document-units="px"
     inkscape:current-layer="layer1"
     showgrid="false"
     inkscape:window-width="1440"
     inkscape:window-height="876"
     inkscape:window-x="1440"
     inkscape:window-y="24"
     inkscape:window-maximized="1" />
  <metadata
     id="metadata7">
    <rdf:RDF>
      <cc:Work
         rdf:about="">
        <dc:format>image/svg+xml</dc:format>
        <dc:type
           rdf:resource="http://purl.org/dc/dcmitype/StillImage" />
        <dc:title></dc:title>
      </cc:Work>
    </rdf:RDF>
  </metadata>
  <g
     inkscape:label="Layer 1"
     inkscape:groupmode="layer"
     id="layer1"
     transform="translate(0,-392.36218)">
    <g
       id="g4243"
       transform="matrix(0.97578819,0,0,0.97578819,16.566852,317.13097)"
       inkscape:export-filename="/home/cefleet/Development/games/Teddy/src/assets/tree.png"
       inkscape:export-xdpi="91.20002"
       inkscape:export-ydpi="91.20002">
      <path
         inkscape:connector-curvature="0"
         id="path3813"
         d="m 572.68179,324.45128 c -1.73106,9.38527 1.39798,11.64156 5.12181,15.36541 12.70895,12.70898 75.24066,6.0963 81.94887,12.8045 7.63938,7.6394 48.66007,16.22004 61.4616,20.48721 3.4622,1.15407 12.80835,0.004 15.36536,2.56091 22.67328,22.67323 -40.72687,61.95664 -30.7308,81.94884 6.84345,13.68684 -13.67733,17.08229 -25.60899,23.0481 -12.97058,6.48529 -64.09247,17.99623 -69.14437,23.04812 -5.2845,5.28454 -27.22182,-6.87629 -35.85262,-2.5609 -22.07383,11.03694 -41.6309,23.6829 -74.2661,12.8045 -11.17392,-3.72464 -38.275,-21.83692 -51.21806,-15.36541 -18.59703,9.29855 -28.63406,33.29172 -48.65709,33.29172 -18.98983,0 -129.45412,-9.98639 -120.36236,-28.16991 15.39553,-30.79106 46.30457,-16.75004 74.26614,-30.73081 39.93933,-19.96967 86.98709,-75.09192 122.92325,-87.07065 32.93905,-10.97967 82.67981,-13.53547 102.43603,-33.29172 1.6892,-1.68915 1.15249,-15.1094 2.56096,-17.92631"
         style="fill:#23a500;fill-opacity:1;stroke:none" />
      <path
         inkscape:connector-curvature="0"
         id="path3813-7"
         d="m 570.30162,334.79611 c -1.17368,6.36337 0.94786,7.89317 3.47268,10.418 8.61688,8.61691 51.01445,4.1334 55.56272,8.68168 5.17964,5.17964 32.99236,10.99746 41.67202,13.89067 2.34742,0.78248 8.68428,0.003 10.41797,1.73634 15.37287,15.37284 -27.61351,42.00766 -20.836,55.56271 4.63998,9.27991 -9.27346,11.58208 -17.36334,15.62701 -8.79427,4.39713 -43.45578,12.20175 -46.88105,15.62701 -3.58299,3.58301 -18.45686,-4.66224 -24.30869,-1.73634 -14.96643,7.48324 -28.22646,16.05742 -50.35368,8.68168 -7.57611,-2.52537 -25.9511,-14.8058 -34.72672,-10.41801 -12.6091,6.30457 -19.41437,22.57235 -32.99032,22.57235 -12.87543,0 -87.77211,-6.77094 -81.60773,-19.09968 10.43842,-20.87686 31.39528,-11.35681 50.3537,-20.83601 27.07954,-13.53978 58.97873,-50.9136 83.34405,-59.03538 22.33324,-7.4444 56.05832,-9.17727 69.45338,-22.57235 1.1453,-1.14528 0.7814,-10.24443 1.73637,-12.15435"
         style="fill:url(#linearGradient3846);fill-opacity:1;stroke:none" />
      <path
         inkscape:connector-curvature="0"
         id="path2991"
         d="m 489.15732,115.89317 c 0.42736,0.14198 1.71377,18.7832 -5.1218,15.36541 -55.58927,-27.79464 -151.18056,-57.576583 -215.11571,-25.60901 -22.30941,11.1547 -47.12375,1.02752 -64.02253,17.92631 -15.67967,15.67967 -60.46164,1.5609 -76.82705,17.92631 -6.38487,6.38487 -13.80388,18.42599 -23.0481,23.0481 -20.654826,10.32742 -62.790326,12.901 -74.266137,35.85262 -5.535375,11.07075 4.711339,16.18634 0,25.60902 -7.880549,15.76109 -26.08247,31.20427 -38.41352,43.53532 -7.641601,7.6416 11.2017696,24.96444 12.8045062,28.16991 9.4435588,18.88712 -0.5903671,44.91549 7.6827048,61.46164 11.792593,23.58518 34.358411,29.2366 48.657124,43.53532 13.167851,13.16785 6.794286,45.2078 23.048115,61.46163 21.542397,21.5424 51.828237,0.30511 71.705237,10.2436 10.15605,5.07803 24.69159,9.08417 35.85261,12.80451 1.66815,0.55605 11.37056,-1.43395 12.80451,0 5.00336,5.00337 22.40699,1.91979 28.16991,7.6827 5.17779,5.17779 32.93168,36.03264 48.65713,28.16991 24.35645,-12.17822 84.30514,-13.39357 112.67965,-20.4872 18.38004,-4.59502 42.73724,-27.37183 51.21803,-35.85262 5.13129,-5.1313 21.48209,-3.55578 28.16991,-10.2436 7.84966,-7.84967 6.58368,-28.90085 15.36541,-33.29172 32.05657,-16.02829 77.81262,-14.77568 94.75334,-48.65712 2.97082,-5.94164 -4.51584,-23.65407 0,-28.16992 26.589,-26.58899 34.4842,-114.04808 5.12181,-143.41047 -4.4315,-4.4315 -18.38592,-3.02051 -23.04811,-7.6827 -23.50261,-23.50261 -76.82704,-36.1012 -76.82704,-79.38795 z"
         style="fill:#23a500;fill-opacity:1;stroke:none" />
      <path
         sodipodi:nodetypes="csssssssssssssssssssssssssc"
         inkscape:connector-curvature="0"
         id="path2991-7"
         d="m 389.59695,117.8521 c 0.33666,-0.0223 3.63682,9.86581 -1.89169,9.59608 -44.9599,-2.19346 -120.01114,3.88059 -163.69366,36.30353 -15.24248,11.31359 -51.13884,-4.51271 -61.62375,8.67531 -9.72849,12.23662 -44.90894,14.99101 -55.0629,27.76277 -3.96155,4.98286 -7.984362,13.29908 -14.30029,17.98704 -14.112024,10.47452 -29.109281,37.82717 -34.788634,53.05552 -2.739451,7.3454 5.546985,7.74546 3.215361,13.99736 -3.900072,10.45746 -15.539893,23.15458 -23.190736,32.77788 -4.741259,5.96363 11.491048,11.02575 13.089171,12.40302 9.416364,8.11514 5.198971,24.688 13.448219,31.79728 11.758644,10.13374 29.302511,7.9461 41.764769,12.418 11.47663,4.11823 10.7447,23.121 24.91095,28.20437 18.77559,6.73735 38.70264,-11.95235 54.77889,-11.16802 8.21411,0.40074 19.56074,-0.80845 28.35408,-1.38479 1.31426,-0.0861 8.30248,-3.44256 9.55226,-2.99409 4.36076,1.56479 16.95689,-4.19016 21.97963,-2.3878 4.51278,1.61933 29.09143,11.99426 39.83555,4.01954 16.6411,-12.3517 61.21078,-27.0339 81.48779,-37.54601 13.13476,-6.80938 28.44568,-24.95425 33.70762,-31.57276 3.18373,-4.00453 15.57939,-6.96672 19.72887,-12.18596 4.87036,-6.12598 1.28274,-17.33613 7.28278,-21.78956 21.90203,-16.25658 56.19374,-26.27113 64.57768,-48.75136 1.47028,-3.94228 -6.33875,-11.87293 -3.53689,-15.39716 16.49725,-20.75039 11.40617,-70.39997 -14.18507,-79.58303 -3.86233,-1.38594 -14.09531,2.64826 -18.15871,1.19017 -20.48404,-7.35043 -61.84639,-1.7676 -67.28129,-25.42733 z"
         style="opacity:0.68724281;fill:url(#linearGradient3803);fill-opacity:1;stroke:none" />
      <path
         inkscape:connector-curvature="0"
         id="path2991-7-3"
         d="m 350.29635,181.07624 c 0.13948,-0.045 2.46132,2.25262 0.11079,2.819 -19.11537,4.60604 -50.105,14.93289 -65.41363,28.77102 -5.34177,4.82865 -13.63653,7.18929 -16.80042,11.97555 -2.93563,4.44098 -17.47086,9.25655 -20.53489,13.89175 -1.19542,1.80839 -2.10177,4.52712 -4.3152,6.52794 -4.94559,4.47053 -16.96582,11.11986 -17.916,15.90313 -0.45832,2.3072 3.06439,1.45714 2.67431,3.42089 -0.65249,3.28471 -4.34847,8.07154 -6.65715,11.56407 -1.4307,2.16435 5.87404,1.65847 6.67621,1.84681 4.7266,1.10976 4.51826,6.08825 8.659,7.06045 5.90232,1.38579 13.0739,-1.23624 18.73737,-1.46599 5.21553,-0.21157 6.70253,5.02218 13.14038,4.76103 8.53255,-0.34614 15.14777,-7.71531 21.98283,-9.36228 3.49234,-0.84151 8.15003,-2.4816 11.7937,-3.65487 0.54461,-0.1753 3.16652,-1.89315 3.73448,-1.91619 1.98174,-0.0804 6.73557,-3.09675 9.01816,-3.18934 2.05083,-0.0832 13.36747,-0.1149 17.13276,-3.51851 5.83191,-5.27171 23.18927,-14.40535 30.72403,-19.59915 4.88076,-3.36437 9.6061,-10.05197 11.19392,-12.454 0.96072,-1.45334 5.89402,-3.68977 7.14615,-5.58396 1.46967,-2.22326 -1.09783,-4.84588 1.0048,-6.74659 7.67561,-6.93832 21.15135,-13.61837 22.554,-20.67947 0.24598,-1.23829 -3.78721,-2.48397 -2.94173,-3.76299 4.97816,-7.53083 -1.85236,-20.39528 -13.48228,-19.9235 -1.75522,0.0712 -5.67774,2.34795 -7.52436,2.42287 -9.30895,0.37762 -26.17688,6.67465 -30.69723,0.89233 z"
         style="opacity:0.68724281;fill:url(#linearGradient3811);fill-opacity:1;stroke:none" />
      <path
         inkscape:connector-curvature="0"
         inkscape:original-d="m 371.77521,570.48546 c 3.13429,-17.23262 15.31867,-38.17582 28.57142,-51.42857 2.44393,-2.44394 13.44231,-5.29258 17.14286,-7.14286 10.21841,-5.10921 25.31055,-3.36956 35.71429,-8.57143 17.4271,-8.71355 24.1527,-21.29556 34.28571,-31.42857 19.07415,-19.07415 64.06164,-26.31654 88.57143,-38.57143 6.38365,-3.19183 41.87451,4.73165 45.71429,8.57143 2.1787,2.1787 29.0874,-4.45771 32.85714,-5.71429"
         inkscape:path-effect="#path-effect3862"
         id="path3860"
         d="m 366.85591,569.59073 9.8386,1.78946 c 1.4316,-8.87729 5.07169,-17.54337 9.55341,-25.85935 4.66818,-8.57105 10.28052,-16.61574 17.01451,-23.54815 0.0362,-0.22299 0.80146,-0.46514 1.93228,-1.08741 1.41911,-0.66582 2.9645,-1.25443 4.58755,-1.86114 0,0 10e-6,0 10e-6,-10e-6 1.66091,-0.6182 3.37598,-1.22291 5.1219,-1.87211 1.29213,-0.47111 2.75871,-1.01165 4.30686,-1.79491 4.58145,-2.50006 10.43847,-3.17488 16.54311,-4.14666 6.07437,-0.84991 12.72265,-1.79589 18.92852,-4.91006 10e-6,-10e-6 10e-6,-10e-6 10e-6,-10e-6 7.85163,-4.08058 14.72623,-9.69817 20.54795,-16.1375 5.00221,-5.527 9.23711,-11.3881 14.10981,-16.39791 4.84456,-5.03785 11.08078,-8.82246 17.59251,-12.14329 7.48943,-3.79779 15.4083,-6.85585 23.4245,-9.74137 8.16828,-2.93769 16.45833,-5.64659 24.69724,-8.57599 0,0 1e-5,-1e-5 1e-5,-1e-5 7.28262,-2.58604 14.60097,-5.30781 21.53748,-8.89921 0.80458,-0.462 1.93897,-0.52812 3.16626,-0.63651 1.80525,-0.12213 3.6494,-0.0514 5.51205,0.073 4.82602,0.32534 9.64087,1.0674 14.43556,1.96699 4.72469,0.8878 9.41713,1.93382 14.01982,3.29035 1.71004,0.50453 3.40094,1.04196 5.03126,1.71163 1.00563,0.42798 2.00023,0.78463 2.66866,1.45289 0,10e-6 10e-6,2e-5 2e-5,2e-5 0.31953,0.27991 0.65871,0.39303 0.93101,0.43063 0,0 10e-6,0 10e-6,0 0.44285,0.0906 0.87622,0.11349 1.28911,0.11656 1.25527,0.0133 2.4885,-0.12516 3.69971,-0.28481 3.4791,-0.45611 6.90639,-1.17163 10.31366,-1.92835 3.54431,-0.78689 7.07025,-1.64931 10.57865,-2.57353 1.33638,-0.35204 2.6706,-0.71297 3.99921,-1.09303 0.80235,-0.2295 1.60734,-0.45566 2.39519,-0.73121 -0.79561,0.25227 -1.60544,0.45422 -2.4144,0.66013 -1.33852,0.34066 -2.6817,0.66194 -4.02702,0.97434 -3.53181,0.82014 -7.07725,1.57755 -10.63595,2.25851 -3.42387,0.65495 -6.8545,1.26682 -10.30431,1.61546 -1.20596,0.12108 -2.40335,0.22184 -3.58069,0.17227 0,0 -10e-6,0 -10e-6,0 -0.38963,-0.0177 -0.7624,-0.0452 -1.10313,-0.12916 0,-10e-6 -10e-6,-10e-6 -10e-6,-10e-6 -0.22364,-0.0729 -0.40245,-0.10733 -0.44218,-0.18669 -0.86145,-0.8616 -1.9577,-1.32717 -2.94113,-1.75041 -1.66412,-0.74018 -3.37715,-1.34214 -5.08909,-1.90115 -4.61383,-1.50793 -9.32287,-2.70527 -14.05642,-3.73869 0,0 -10e-6,0 -10e-6,-10e-6 -4.8015,-1.04965 -9.66176,-1.94438 -14.59466,-2.4252 -1.89959,-0.18642 -3.83585,-0.31451 -5.80073,-0.2437 -1.25637,0.0187 -2.69316,0.12449 -4.11294,0.77467 -6.86105,3.30738 -14.13036,5.76138 -21.4566,8.12981 0,0 -10e-6,0 -10e-6,0 -8.2713,2.66991 -16.63446,5.13298 -24.95682,7.85197 -8.1565,2.66209 -16.31385,5.54529 -24.19119,9.2438 -6.84572,3.19528 -13.62199,7.08619 -19.2865,12.55741 -5.36607,5.22896 -9.8361,11.02889 -14.70533,16.09525 -5.61122,5.82974 -12.06018,10.80717 -19.20833,14.22648 -1e-5,0 -1e-5,0 -1e-5,0 -4.84066,2.40909 -10.75889,2.93486 -16.92475,3.73086 -6.03489,0.66058 -12.65798,1.37751 -19.03218,4.35527 -0.95408,0.46786 -2.14158,0.84461 -3.48525,1.31104 -10e-6,10e-6 -10e-6,10e-6 -2e-5,10e-6 -1.67789,0.56864 -3.40769,1.12188 -5.17129,1.71954 -10e-6,0 -2e-5,0 -2e-5,1e-5 -1.68753,0.5687 -3.44568,1.18666 -5.23439,1.95312 -1.13534,0.38957 -2.72748,1.15452 -4.44615,2.68642 -7.55682,7.3584 -13.897,15.85666 -19.14576,24.89552 -5.09914,8.69716 -9.36678,18.2212 -11.42916,28.55412 z"
         style="fill:#853a0a;fill-opacity:1;fill-rule:evenodd;stroke:none" />
      <path
         inkscape:connector-curvature="0"
         inkscape:original-d="m 247.48949,573.3426 c 9.33191,-6.13578 8.25906,-26.33904 -2.85714,-48.57143 -7.72851,-15.45701 1.17391,-22.27019 -17.14286,-31.42857 -12.11428,-6.05714 -38.1565,3.27207 -47.14286,-5.71429 -4.54774,-4.54774 -16.65471,-9.02371 -20,-15.71428 -5.16079,-10.32159 -7.27946,-24.42233 -14.28571,-31.42857 -8.94039,-8.94039 -29.59699,-3.88271 -38.57143,-12.85715 -7.24019,-7.24019 -12.211984,-16.49769 -20.000004,-24.28571 -3.765943,-3.76594 1.256346,-15.8004 -18.571428,-25.71429"
         inkscape:path-effect="#path-effect3866"
         id="path3864"
         d="m 244.74254,569.16477 5.4939,8.35566 c 3.58753,-2.57109 5.84911,-6.08638 6.9111,-9.68958 1.36762,-4.45207 1.58485,-8.89254 1.24297,-13.00411 -0.89277,-11.51254 -4.95668,-22.2255 -10.04945,-31.90992 0,-10e-6 -1e-5,-10e-6 -1e-5,-10e-6 -1.47194,-2.80399 -2.53225,-5.85222 -3.1657,-9.00101 -0.47427,-2.34293 -0.72137,-5.06857 -1.39117,-8.02954 -0.66588,-2.98159 -2.03188,-5.89271 -4.15743,-8.36303 -3.14159,-3.44774 -6.9413,-5.65922 -10.56032,-7.33452 -4.28911,-1.974 -8.71137,-2.38769 -12.69847,-2.36667 -1e-5,0 -1e-5,0 -1e-5,0 -4.73639,-0.0491 -9.31977,0.35278 -13.77654,0.6505 -1e-5,0 -1e-5,0 -1e-5,0 -4.30341,0.27091 -8.46348,0.54524 -12.43337,0.10755 0,0 0,0 0,0 -1.67521,-0.18818 -3.26695,-0.46839 -4.6887,-0.99777 -1.23947,-0.46898 -2.37056,-1.07361 -3.19081,-1.8859 -1.65251,-1.57791 -3.43187,-2.72806 -5.08768,-3.72623 -2.02005,-1.24124 -4.03106,-2.36977 -5.95104,-3.53285 -1.93936,-1.18076 -3.7958,-2.36434 -5.43081,-3.7184 -1.42479,-1.21241 -2.69731,-2.43908 -3.39538,-3.83839 -1e-5,0 -1e-5,0 -1e-5,-1e-5 -2.6838,-5.11055 -4.44413,-10.86696 -6.62384,-16.60643 -1e-5,0 -1e-5,-1e-5 -1e-5,-1e-5 -1.92067,-5.2136 -4.21965,-10.78459 -8.49773,-15.01974 -2.68056,-2.54758 -6.03871,-3.97998 -9.34567,-4.81098 0,0 -1e-5,0 -1e-5,0 -3.67171,-0.94791 -7.3674,-1.35263 -10.97535,-1.76352 -3.62189,-0.4208 -7.19218,-0.80186 -10.59854,-1.69181 -3.0396,-0.81148 -5.9924,-2.01218 -8.13201,-4.11069 -3.63145,-3.50519 -6.74962,-7.58701 -9.897017,-11.66924 -3e-6,0 -6e-6,0 -9e-6,-1e-5 -3.262719,-4.23927 -6.592628,-8.4966 -10.468258,-12.25118 -0.977287,-0.8846 -1.273157,-2.42104 -1.62752,-3.9204 -10e-7,0 -2e-6,-1e-5 -3e-6,-1e-5 -0.466337,-2.12144 -0.898295,-4.29134 -1.679377,-6.36809 -1.058734,-2.80437 -2.703359,-5.36197 -4.753032,-7.51684 -3.075473,-3.2305 -6.909087,-5.61035 -10.897166,-7.52328 3.92319,2.04271 7.66164,4.54121 10.576918,7.81811 1.940651,2.17958 3.459098,4.72624 4.390685,7.46702 0.690856,2.02416 1.039389,4.16202 1.441154,6.3103 0.257704,1.51106 0.582042,3.21689 1.777,4.50453 3.683332,3.80438 6.821754,8.10996 9.94262,12.4454 3.005675,4.18285 6.037555,8.42478 9.692105,12.20559 2.47726,2.51835 5.72795,4.02837 8.97926,4.96487 3.60751,1.05891 7.29178,1.5857 10.88716,2.11532 3.60436,0.53887 7.15859,1.03724 10.49758,2.03084 0,0 0,0 0,0 2.96883,0.90699 5.80317,2.16917 7.72728,4.22627 3.54046,3.58339 5.3447,8.73345 7.17207,13.92232 1.92315,5.64775 3.54859,11.59321 6.27777,17.30864 0,0 0,10e-6 1e-5,10e-6 1.12001,2.23686 2.73129,4.01095 4.39814,5.43842 1.88523,1.6518 3.8946,3.04277 5.87381,4.32618 1.97603,1.28688 3.94289,2.47677 5.80451,3.70815 1.56548,1.0538 3.01044,2.01715 4.05861,3.13992 1.48298,1.49094 3.22815,2.56316 5.02692,3.26843 2.00069,0.79338 4.0348,1.24818 6.0008,1.51228 0,0 10e-6,0 10e-6,0 4.60502,0.62742 9.12941,0.50975 13.45629,0.35437 0,0 1e-5,0 1e-5,0 4.56001,-0.14765 8.99812,-0.39968 13.28611,-0.20114 0,0 1e-5,10e-6 1e-5,10e-6 3.68455,0.23151 7.15246,0.54418 9.72766,2.00234 3.23398,1.7512 6.22779,3.5021 8.07795,5.86701 1.16074,1.3564 1.89169,3.19065 2.28835,5.14003 0.45788,2.27229 0.59882,4.91176 1.08402,7.83552 0.64797,3.8852 1.83524,7.69551 3.56077,11.28646 0,0 0,1e-5 0,1e-5 4.40695,9.31502 7.82469,19.03908 8.14377,28.73397 0.0889,3.42738 -0.10152,6.68268 -1.1286,9.39208 -0.80723,1.9868 -1.85877,3.74605 -3.19627,4.4132 z"
         style="fill:#853a0a;fill-opacity:1;fill-rule:evenodd;stroke:none" />
      <path
         inkscape:connector-curvature="0"
         inkscape:original-d="m 341.77521,540.48546 c -0.97087,-5.20277 3.85363,-53.85364 18.57142,-68.57143 3.08168,-3.08168 10.43775,-2.36173 14.28572,-4.28572 9.92728,-4.96364 19.60585,-15.32013 27.14286,-22.85714 9.36067,-9.36068 32.35137,-3.77994 41.42857,-12.85714 17.98091,-17.98092 15.17212,-40.44321 40,-52.85714"
         inkscape:path-effect="#path-effect3870"
         id="path3868"
         d="m 336.86006,541.40266 9.8303,-1.8344 c -0.0252,0.0482 -0.0203,-0.17781 -0.0609,-0.65938 -0.0327,-0.64258 -0.0327,-1.33702 -0.0238,-2.08064 0.0286,-2.19251 0.1635,-4.43171 0.33744,-6.71336 0,0 0,-10e-6 0,-10e-6 0.50027,-6.51829 1.34554,-13.02734 2.49064,-19.49753 0,-1e-5 0,-1e-5 0,-1e-5 1.28899,-7.2382 2.90443,-14.35596 5.28246,-21.16073 1.07388,-3.06771 2.27491,-6.035 3.74752,-8.80386 0,0 0,0 0,0 1.26906,-2.35685 2.642,-4.54331 4.33008,-6.29156 0.47587,-0.95093 2.52283,-1.12484 4.94521,-1.76579 0,0 10e-6,0 10e-6,0 2.28237,-0.36879 5.23004,-0.68225 8.29725,-2.15927 0,0 0,0 1e-5,0 5.67708,-3.00874 10.50127,-7.04984 14.91091,-11.2237 4.39669,-4.13924 8.44167,-8.50959 12.51083,-12.75846 1.90039,-2.09612 4.87192,-3.3417 8.00361,-4.27483 3.59074,-1.02536 7.43246,-1.51634 11.34813,-2.04873 3.87696,-0.5168 7.87143,-1.0193 11.81133,-2.08895 3.4261,-0.89719 6.93815,-2.40647 9.59978,-5.11035 4.16272,-4.34617 7.51735,-9.34743 10.26007,-14.60338 10e-6,0 10e-6,-10e-6 10e-6,-10e-6 2.50936,-4.80743 4.54434,-9.77831 6.80265,-14.61018 0,0 0,-1e-5 0,-1e-5 2.22455,-4.75137 4.72004,-9.39018 8.01794,-13.44398 3.76121,-4.62992 8.5737,-8.40891 13.90226,-11.21665 -5.44333,2.5782 -10.4551,6.16803 -14.48913,10.71832 -3.52823,3.98512 -6.2812,8.5982 -8.7259,13.30295 0,0 0,0 -10e-6,10e-6 -2.4843,4.77284 -4.72431,9.6439 -7.37355,14.22433 -2.89095,4.99647 -6.31925,9.66867 -10.42848,13.59446 -2.13896,2.09671 -5.21476,3.17561 -8.37284,3.9337 -3.66949,0.84337 -7.51238,1.14767 -11.43201,1.51153 -1e-5,0 -1e-5,0 -1e-5,0 -3.92181,0.35288 -7.9564,0.70768 -12.0015,1.65805 -3.57913,0.80325 -7.28679,2.28273 -10.28793,5.08814 -4.28874,4.10902 -8.45921,8.2511 -12.83933,12.0287 -4.45536,3.82254 -9.02351,7.37305 -14.02465,9.70342 0,0 0,0 0,0 -1.4956,0.80439 -3.81203,0.79763 -6.56317,1.25818 -2.47067,0.16524 -5.73511,0.83258 -8.76579,3.3882 -2.38134,2.32117 -4.25512,4.96059 -5.79677,7.62573 0,0 0,0 0,1e-5 -1.83105,3.13388 -3.32759,6.39317 -4.62039,9.66226 -2.86551,7.2348 -4.91639,14.70482 -6.5607,22.16355 0,0 0,10e-6 0,10e-6 -1.47866,6.67583 -2.65127,13.43655 -3.46926,20.25858 0,0 0,10e-6 0,10e-6 -0.28644,2.37723 -0.53432,4.80664 -0.67641,7.29258 -0.0488,0.83616 -0.0838,1.723 -0.0813,2.66086 -0.0187,0.49919 0.0106,1.25959 0.16538,2.27219 z"
         style="fill:#853a0a;fill-opacity:1;fill-rule:evenodd;stroke:none" />
      <path
         inkscape:connector-curvature="0"
         inkscape:original-d="m 348.91806,483.3426 c 3.64908,2.69116 25.00379,-17.85336 8.57143,-34.28571 -3.33333,-3.33334 -10.95238,-2.38096 -14.28571,-5.71429 -4.99014,-4.99014 -1.38424,-15.66995 -5.71429,-20 -8.09704,-8.09705 -25.89672,-13.39415 -37.14286,-17.14286 -8.15487,-2.71829 -12.45993,-12.65854 -18.57142,-15.71428"
         inkscape:path-effect="#path-effect3874"
         id="path3872"
         d="m 351.88574,479.31857 -5.93536,8.04806 c 1.5703,0.9523 2.90954,1.32528 3.9395,1.18222 1.24913,-0.0869 2.19677,-0.31727 2.84042,-0.61843 1.87418,-0.79694 3.30518,-1.7853 4.37356,-2.74859 10e-6,0 10e-6,0 10e-6,0 3.22548,-2.75281 5.72925,-6.09849 7.52723,-9.68392 0,0 0,0 0,-10e-6 2.17847,-4.18933 3.36437,-9.04838 2.97933,-14.01399 -0.61859,-5.97409 -3.58044,-11.17398 -7.62662,-14.92133 -1.50315,-1.35229 -3.09296,-2.13701 -4.54227,-2.54639 -1.58424,-0.49203 -3.06485,-0.7662 -4.40248,-1.0016 0,0 0,0 0,0 -1.35746,-0.25422 -2.58292,-0.45637 -3.63704,-0.78556 -0.92446,-0.32611 -1.69446,-0.59598 -2.08285,-1.00182 -10e-6,0 -10e-6,0 -10e-6,0 -0.79571,-0.61955 -1.33563,-1.81555 -1.77386,-3.17113 0,0 0,0 0,0 -0.45212,-1.51653 -0.63273,-3.26371 -0.83694,-5.14033 -0.17967,-1.80443 -0.35126,-3.77178 -0.82609,-5.8139 -0.36646,-1.79998 -1.21156,-3.74678 -2.79395,-5.35808 -5.37276,-4.96657 -12.00305,-7.7236 -18.39796,-10.05118 0,-10e-6 0,-10e-6 0,-10e-6 -6.63423,-2.44802 -13.38786,-4.31791 -20.07667,-6.29401 -3.86286,-1.09334 -7.0619,-4.12246 -10.01781,-7.19803 0,0 0,0 0,0 -1.43149,-1.49835 -2.83235,-3.05176 -4.35287,-4.48604 -1.34168,-1.26773 -2.79712,-2.46425 -4.4678,-3.22904 1.61424,0.87767 2.95621,2.15356 4.19878,3.49544 1.40496,1.51988 2.68388,3.15213 4.01944,4.75685 0,0 0,0 0,10e-6 2.73735,3.30907 5.83364,6.65137 10.08614,8.26315 6.55538,2.43862 13.13804,4.75703 19.42802,7.58759 0,0 0,0 0,0 6.1243,2.78558 12.19354,5.75719 16.38307,10.35293 0.6676,0.63868 0.96432,1.82578 1.24177,3.14192 0.27237,1.57385 0.28393,3.31179 0.35741,5.19103 0.0553,1.90019 0.15019,3.95053 0.5941,6.11214 0,0 0,0 0,10e-6 0.39326,2.05757 1.31611,4.20695 3.00445,6.07145 0,0 0,0 0,10e-6 1.35172,1.33427 2.85773,2.1733 4.25643,2.65889 1.53026,0.57379 2.99174,0.94069 4.30938,1.26801 0,1e-5 10e-6,1e-5 10e-6,1e-5 1.33747,0.34613 2.54381,0.64102 3.54395,1.05197 0.87385,0.40233 1.56005,0.72651 1.79701,1.11433 2.73648,3.03531 4.62981,6.81382 4.58592,10.41464 0.10028,3.12021 -1.04127,6.35744 -2.74356,9.27837 -1.55547,2.55871 -3.48303,4.82074 -5.7262,6.43714 0,10e-6 0,10e-6 0,10e-6 -0.82832,0.55209 -1.42528,0.9683 -1.82556,1.02027 -0.13478,-0.0106 -0.002,-0.0161 0.41675,-0.0873 0.41225,-0.13141 1.11016,0.11868 2.18322,0.70427 z"
         style="fill:#853a0a;fill-opacity:1;fill-rule:evenodd;stroke:none" />
      <path
         inkscape:connector-curvature="0"
         inkscape:original-d="m 340.34663,526.19974 c -0.40415,-4.72063 -5.00343,-6.9059 -18.57142,-11.42857 -10.27997,-3.42666 -23.23884,1.95201 -32.85715,-2.85714 -10.90138,-5.4507 -14.37985,-21.61684 -18.57143,-30 -4.83917,-9.67835 -18.79554,-14.73394 -24.28571,-25.71429 -1.5386,-3.0772 -3.14767,-12.28812 -7.14286,-14.28571 -22.06989,-11.03495 -85.46975,-7.63193 -68.57143,-41.42857"
         inkscape:path-effect="#path-effect3878"
         id="path3876"
         d="m 335.36485,526.62625 9.96356,-0.85302 c -0.18542,-1.99388 -0.9238,-3.93886 -2.19427,-5.65958 -1.52808,-1.868 -3.18115,-3.1006 -4.68471,-3.87584 -5.18479,-2.85415 -10.47094,-4.31431 -15.24572,-5.75211 0,0 -10e-6,0 -10e-6,0 -6.60208,-1.90317 -12.86835,-1.29334 -18.33395,-0.78119 -5.43479,0.27237 -10.51169,0.7537 -14.24555,-1.20275 -4.45676,-1.85417 -7.64854,-6.77394 -10.41902,-11.96343 0,0 0,-10e-6 0,-10e-6 -2.47087,-4.86696 -4.26244,-10.50515 -7.12624,-15.99044 0,0 -10e-6,-1e-5 -10e-6,-1e-5 -1.54013,-2.88695 -3.60962,-5.25824 -5.79476,-7.26027 0,0 0,0 0,-10e-6 -2.3374,-2.1646 -4.79072,-4.0254 -7.14999,-5.83823 -4.78963,-3.76924 -9.52207,-7.4026 -12.0136,-12.27945 -0.43013,-0.7753 -0.74208,-1.78107 -1.14171,-2.90616 -0.49135,-1.41684 -0.9861,-2.88114 -1.56841,-4.35658 -0.57009,-1.46059 -1.24886,-2.97144 -2.17295,-4.4224 0,0 -10e-6,0 -10e-6,-1e-5 -0.72042,-1.21938 -1.8288,-2.47221 -3.44309,-3.32343 -3.38966,-1.60173 -6.92117,-2.63051 -10.40005,-3.48533 -4.18795,-1.03646 -8.39855,-1.82827 -12.58927,-2.57635 -8.93351,-1.59838 -17.85907,-2.91948 -26.53808,-5.22408 -1e-5,0 -1e-5,0 -1e-5,0 -3.8379,-1.02042 -7.62201,-2.21914 -11.18134,-3.91299 0,0 -1e-5,0 -1e-5,0 -2.95377,-1.41193 -5.78372,-3.15151 -7.92836,-5.57713 -1.92071,-2.16452 -3.17032,-4.96094 -3.3787,-7.88135 -0.27661,-3.76462 0.92487,-7.5514 2.56804,-11.01864 -1.7879,3.39488 -3.16258,7.14535 -3.05286,11.04308 0.0922,3.04161 1.26183,6.03034 3.20566,8.41569 2.15594,2.63762 5.02687,4.59786 8.01057,6.16549 3.58971,1.8937 7.4134,3.29127 11.26151,4.48546 1e-5,0 1e-5,0 2e-5,10e-6 8.70311,2.7038 17.65392,4.42403 26.45681,6.38135 4.13837,0.92171 8.24801,1.87411 12.26142,3.05116 3.35004,0.98826 6.6151,2.0775 9.55195,3.63903 0.61767,0.26475 1.13614,1.05727 1.72725,1.96084 0,0 0,0 1e-5,0 0.66151,1.11565 1.15904,2.40277 1.64199,3.76932 0,0 0,1e-5 0,1e-5 0.47314,1.35817 0.88556,2.77997 1.32532,4.23998 0.31227,1.07448 0.66119,2.30015 1.26498,3.59269 2.98154,6.0693 8.01506,10.5087 12.76036,14.41134 2.30246,1.93803 4.55572,3.79091 6.51925,5.78596 0,0 0,0 1e-5,0 1.80417,1.85624 3.3916,3.77631 4.33344,5.8533 0,10e-6 0,10e-6 0,10e-6 2.34466,4.93162 3.86425,10.56657 6.41283,16.20889 0,0 10e-6,0 10e-6,10e-6 2.56672,5.98506 6.5652,12.15321 13.18476,15.83722 6.09847,2.95971 12.57387,3.02298 18.11534,2.69126 0,0 10e-6,0 10e-6,0 5.72205,-0.10357 10.99193,-0.60096 15.01945,1.03908 0,0 10e-6,0 10e-6,10e-6 4.91615,1.79251 9.57591,3.20735 13.19856,5.52798 0.89267,0.63265 1.55266,1.05823 1.68525,1.41874 0.0823,0.0946 0.12661,0.36109 0.13431,0.62288 z"
         style="fill:#853a0a;fill-opacity:1;fill-rule:evenodd;stroke:none" />
      <path
         inkscape:connector-curvature="0"
         inkscape:original-d="m 374.63235,539.05689 c 13.49799,-15.43127 -13.77583,13.77582 8.57143,-8.57143 8.18063,-8.18063 19.71579,-12.57294 27.14285,-20 9.65897,-9.65897 35.78666,-2.92952 45.71429,-12.85715 4.45237,-4.45237 5.54763,-9.83334 10,-14.28571 23.50153,-23.50153 79.25742,-36.77157 111.42857,-52.85714 6.42689,-3.21345 17.45137,-0.57903 24.28572,-2.85715"
         inkscape:path-effect="#path-effect3882"
         id="path3880"
         d="m 370.86894,535.76497 7.52682,6.58384 c 1.09209,-1.29421 2.23182,-2.63721 3.36362,-4.06989 -0.9948,-1.30905 -1.85591,-2.79038 -2.61802,-4.46546 -0.17835,-0.10935 -0.35254,-0.22227 -0.52482,-0.3399 -0.0833,-0.0569 -0.16386,-0.11494 -0.25239,-0.17506 -0.042,-0.0285 -0.0924,-0.0521 -0.1404,-0.0718 -0.11734,-0.0482 -0.23107,-0.0922 -0.34331,-0.13785 -3e-5,-1e-5 -6e-5,-2e-5 -9e-5,-4e-5 -1.24567,-0.50645 -2.29637,-1.11112 -3.18132,-1.84995 -0.29546,0.297 -0.56313,0.57888 -0.80759,0.84134 -10e-6,0 -10e-6,0 -10e-6,1e-5 -0.63459,0.6795 -1.25226,1.36529 -1.85547,2.05472 0,0 0,10e-6 0,10e-6 -0.44741,0.50459 -0.99227,1.12439 -1.58112,1.89699 2e-5,3e-5 5e-5,6e-5 8e-5,9e-5 1.01409,1.18733 1.9569,2.48746 2.83489,3.90393 0.21898,0.15688 0.43314,0.31721 0.64534,0.48215 2e-5,1e-5 4e-5,2e-5 6e-5,4e-5 0.10883,0.0846 0.21474,0.17134 0.33022,0.25794 2e-5,2e-5 4e-5,3e-5 6e-5,5e-5 0.0794,0.0596 0.1673,0.11103 0.25134,0.16062 2e-5,10e-6 4e-5,3e-5 6e-5,4e-5 0.19659,0.11599 0.3876,0.22805 0.57479,0.34252 0.81773,0.50006 1.56146,1.02936 2.23862,1.59944 1.18871,-1.00545 2.11772,-1.96784 2.9015,-2.76622 0,0 10e-6,0 10e-6,-1e-5 2.09858,-2.10034 4.14722,-4.21732 6.17665,-6.32234 3.50683,-3.71586 8.10791,-6.74349 12.89855,-9.92078 0,0 1e-5,0 1e-5,0 4.57847,-2.96896 9.51894,-6.14756 13.80819,-10.51533 1.62157,-1.91343 4.61607,-2.93636 7.86042,-3.83107 3.87495,-0.96018 8.0721,-1.34158 12.4228,-1.80203 4.33101,-0.43926 8.85997,-0.88772 13.41288,-1.99892 0,-1e-5 1e-5,-1e-5 1e-5,-1e-5 3.93278,-0.88739 8.0968,-2.59882 11.39331,-5.84999 4.71182,-5.02203 6.31791,-11.04757 9.77416,-14.51155 6.14462,-6.41834 13.87866,-11.40206 21.91712,-15.88406 9.36386,-5.20262 19.23524,-9.58274 29.2201,-13.74684 0,0 1e-5,0 1e-5,0 10.27393,-4.28299 20.69314,-8.28807 31.05234,-12.47167 10e-6,0 10e-6,0 2e-5,0 9.30343,-3.75605 18.61253,-7.61195 27.52205,-12.27056 0,-10e-6 10e-6,-10e-6 10e-6,-10e-6 1.63192,-0.86069 3.49934,-1.28167 5.38416,-1.54194 2.10912,-0.28839 4.25622,-0.35988 6.40638,-0.41306 4.12017,-0.0973 8.39909,0.0738 12.29423,-1.30402 -3.94283,1.2348 -8.15547,0.89678 -12.29708,0.85163 -2.15332,-0.026 -4.31897,-0.0324 -6.48393,0.1821 -1.93419,0.18908 -3.89818,0.56254 -5.70564,1.42154 0,0 0,0 -10e-6,0 -9.02473,4.30852 -18.41141,7.79745 -27.83396,11.20969 -10.48389,3.79511 -21.04277,7.41749 -31.52242,11.34325 0,0 0,0 0,10e-6 -10.17725,3.8107 -20.32024,7.87843 -30.10353,12.84905 -8.38924,4.24636 -16.67625,9.20353 -23.68559,15.93915 -4.79257,4.78484 -6.68885,10.83308 -10.22585,14.05986 -1.99799,2.04336 -5.18675,3.04214 -8.55225,3.82773 0,0 -1e-5,0 -1e-5,0 -3.96326,0.84095 -8.18289,1.07874 -12.55731,1.382 -4.31665,0.27883 -8.83081,0.54745 -13.44667,1.47817 -3.933,0.70366 -8.20501,2.25834 -11.78291,5.54439 -3.4881,3.40958 -8.04464,6.02131 -12.76946,8.91948 -10e-6,0 -10e-6,1e-5 -10e-6,1e-5 -4.95958,2.97169 -10.16534,6.20929 -14.80948,10.6444 -2.09812,2.02253 -4.18394,4.02666 -6.2849,5.98061 0,10e-6 -1e-5,10e-6 -1e-5,10e-6 -0.94186,0.86759 -1.69989,1.62011 -2.3747,2.12483 0.53386,0.68622 1.13421,1.33292 1.79402,1.92829 0.15104,0.13628 0.30525,0.27076 0.46089,0.39708 4e-5,3e-5 7e-5,5e-5 10e-5,8e-5 0.0665,0.054 0.13047,0.10529 0.20412,0.14774 3e-5,3e-5 7e-5,5e-5 1.1e-4,7e-5 0.10712,0.0617 0.22651,0.12167 0.34569,0.18215 4e-5,2e-5 8e-5,4e-5 1.3e-4,6e-5 0.23236,0.11792 0.47306,0.23423 0.71923,0.34778 5e-5,6e-5 10e-5,1.3e-4 1.5e-4,2e-4 0.97111,1.26792 2.02027,2.42828 3.14144,3.47685 6e-5,6e-5 1.2e-4,1.1e-4 1.8e-4,1.7e-4 0.26503,-0.33242 0.66726,-0.7421 1.15766,-1.27225 0,0 0,0 1e-5,-10e-6 0.5666,-0.60129 1.13687,-1.18989 1.71294,-1.76289 0,0 10e-6,-10e-6 10e-6,-10e-6 0.22744,-0.22576 0.43462,-0.42937 0.62565,-0.60606 -2e-5,-2e-5 -3e-5,-5e-5 -5e-5,-7e-5 -0.6125,-1.00408 -1.39989,-1.88793 -2.33509,-2.61394 -2e-5,-2e-5 -4e-5,-4e-5 -6e-5,-6e-5 -0.0843,-0.0654 -0.16982,-0.13035 -0.25455,-0.18905 -0.0347,-0.024 -0.0674,-0.0438 -0.10899,-0.0583 -0.0877,-0.0306 -0.18546,-0.0617 -0.28251,-0.0924 -0.20066,-0.0635 -0.40828,-0.12516 -0.6206,-0.18373 -1.10163,-1.16725 -2.35915,-2.18142 -3.74042,-3.01737 -1.02469,1.20712 -2.13848,2.42302 -3.29061,3.69446 z"
         style="fill:#853a0a;fill-opacity:1;fill-rule:evenodd;stroke:none" />
      <path
         inkscape:connector-curvature="0"
         inkscape:original-d="m 363.20378,556.19974 c 10.1007,-12.01282 14.09883,-21.24169 24.28571,-31.42857 6.6473,-6.6473 34.27344,-12.851 42.85714,-17.14286 22.21751,-11.10875 48.24716,-22.53287 61.42858,-35.71428 6.07149,-6.07149 41.77894,-13.74662 51.42857,-18.57143 15.45922,-7.72961 51.56028,-39.93415 74.28571,-28.57143"
         inkscape:path-effect="#path-effect3886"
         id="path3884"
         d="m 359.37681,552.98192 7.65394,6.43564 c 4.48868,-5.53359 8.33207,-11.3257 12.10427,-16.95891 3.53161,-5.25013 7.19201,-10.27294 11.41336,-14.62859 1.38195,-1.62417 3.98439,-2.70474 6.8878,-4.11862 3.81975,-1.7393 7.86138,-3.2058 11.99388,-4.65699 0,0 0,0 10e-6,0 4.17448,-1.46287 8.42787,-2.85827 12.69773,-4.3489 3.12865,-1.07926 6.48873,-2.20989 9.80194,-3.911 0,0 1e-5,0 1e-5,0 11.21544,-5.84791 22.70076,-11.42448 33.89248,-17.69914 9.70324,-5.40778 19.5953,-11.3058 27.60116,-19.5332 0.64453,-0.72946 1.71925,-1.30263 2.93149,-1.97776 1.70876,-0.90977 3.53897,-1.68763 5.42337,-2.44127 10e-6,-10e-6 10e-6,-10e-6 10e-6,-10e-6 4.84584,-1.93381 9.85997,-3.56175 14.91265,-5.17892 5.22243,-1.6704 10.49018,-3.27742 15.73639,-5.00676 2.183,-0.7194 4.37244,-1.46211 6.54591,-2.28007 0,0 10e-6,-10e-6 10e-6,-10e-6 1.60949,-0.6034 3.25506,-1.25182 4.85698,-2.08196 2.37007,-1.23644 4.58737,-2.66267 6.75339,-4.09511 2.75784,-1.82141 5.46102,-3.70063 8.16331,-5.56281 6.29808,-4.33875 12.61005,-8.62991 19.2188,-12.41565 10e-6,0 10e-6,0 2e-5,-1e-5 6.51377,-3.72662 13.30202,-7.07268 20.57603,-8.84525 3.22151,-0.78511 6.53903,-1.24044 9.85556,-1.0973 3.12736,0.13484 6.25175,0.83131 9.09218,2.19185 -2.79269,-1.45602 -5.91365,-2.26874 -9.07298,-2.51155 -3.3481,-0.25721 -6.72942,0.0864 -10.02024,0.77343 -7.42297,1.54968 -14.43269,4.69895 -21.11836,8.23959 -6.79691,3.59505 -13.30217,7.69939 -19.75076,11.82883 -10e-6,0 -10e-6,10e-6 -2e-5,10e-6 -2.76915,1.77273 -5.52266,3.55186 -8.30645,5.25744 -2.19877,1.34554 -4.38576,2.65346 -6.64332,3.73083 -1.44761,0.69462 -3.00463,1.24207 -4.60561,1.78646 0,10e-6 -1e-5,10e-6 -1e-5,10e-6 -2.13735,0.72322 -4.30875,1.37802 -6.49718,2.01838 -5.2557,1.53737 -10.56163,2.96112 -15.87009,4.46277 0,0 0,0 0,0 -5.11614,1.44582 -10.26651,2.92961 -15.35202,4.75811 -1e-5,0 -1e-5,0 -2e-5,0 -1.97339,0.70781 -3.97287,1.48368 -5.94245,2.44157 -1.32931,0.61533 -2.81195,1.42273 -4.18295,2.7088 -7.63702,7.41548 -17.27972,12.64729 -27.05036,17.73558 -11.19266,5.79012 -22.78446,10.93648 -34.31316,16.46064 0,1e-5 -10e-6,1e-5 -10e-6,1e-5 -2.67396,1.29248 -5.73664,2.17688 -8.96384,3.19784 -4.22769,1.31727 -8.52486,2.56738 -12.84591,3.91853 0,1e-5 -1e-5,1e-5 -1e-5,1e-5 -4.23984,1.32202 -8.54912,2.73011 -12.82359,4.49372 -1e-5,0 -1e-5,0 -2e-5,0 -3.01387,1.14695 -6.52232,2.7051 -9.69953,5.6401 -4.91005,4.77576 -9.09394,10.07974 -12.93699,15.43053 -3.99247,5.52834 -7.85514,10.96588 -12.1168,15.83911 z"
         style="fill:#853a0a;fill-opacity:1;fill-rule:evenodd;stroke:none" />
      <path
         transform="matrix(1.0100779,0,0,1.0100779,5.3625284,-20.157193)"
         inkscape:connector-curvature="0"
         inkscape:original-d="m 362.43842,583.55096 c 3.01962,-16.60216 14.75823,-36.77914 27.52612,-49.54704 2.35452,-2.35452 12.95052,-5.09895 16.51569,-6.88153 9.84456,-4.92229 24.38455,-3.24629 34.40767,-8.25784 16.78952,-8.39476 23.26906,-20.51646 33.03135,-30.27875 18.37632,-18.37631 61.71792,-25.35374 85.33101,-37.16028 6.1501,-3.07505 40.34252,4.55854 44.04182,8.25784 2.09899,2.09899 28.02323,-4.29462 31.65505,-5.50523"
         inkscape:path-effect="#path-effect3862-8"
         id="path3860-8"
         d="m 357.51912,582.65623 9.8386,1.78946 c 1.36768,-8.52588 4.86312,-16.85922 9.16958,-24.86398 4.48677,-8.24891 9.88047,-15.99099 16.35304,-22.66199 0.004,-0.19089 0.72624,-0.41461 1.81561,-1.01837 1.36042,-0.63962 2.84538,-1.20616 4.40788,-1.79137 0,0 0,0 0,-10e-6 1.59827,-0.59596 3.25032,-1.17949 4.93362,-1.80641 0,0 1e-5,0 1e-5,0 1.24391,-0.45397 2.66194,-0.97773 4.16431,-1.73809 4.38104,-2.39986 10.00977,-3.04922 15.89234,-3.99114 5.85046,-0.8198 12.26887,-1.73886 18.27267,-4.75199 0,-1e-5 10e-6,-1e-5 10e-6,-1e-5 7.57725,-3.94339 14.20812,-9.36717 19.8207,-15.58206 4.82163,-5.33322 8.8973,-10.98102 13.5827,-15.80353 4.65232,-4.84561 10.65051,-8.48981 16.91789,-11.69145 7.20834,-3.66066 14.83313,-6.61004 22.55349,-9.39408 7.86662,-2.83421 15.85203,-5.44851 23.78892,-8.27548 10e-6,0 2e-5,0 2e-5,0 7.01538,-2.49542 14.06689,-5.12251 20.751,-8.58771 0.76389,-0.44165 1.85125,-0.50463 3.0331,-0.61069 1.73629,-0.11861 3.51128,-0.0515 5.30512,0.0672 4.6475,0.31059 9.28536,1.02272 13.90451,1.88665 1e-5,0 1e-5,0 2e-5,0 4.55167,0.85265 9.07213,1.85763 13.50621,3.16177 1.64745,0.48507 3.27608,1.00166 4.84613,1.64554 0.96926,0.41241 1.9256,0.75402 2.56605,1.39429 0,1e-5 1e-5,2e-5 2e-5,2e-5 0.31296,0.27334 0.64267,0.38376 0.90589,0.41934 0,0 10e-6,0 10e-6,0 0.42852,0.0874 0.84714,0.10937 1.24535,0.11206 0,0 10e-6,0 2e-5,0 1.21076,0.0121 2.39952,-0.12193 3.56651,-0.27645 3.35235,-0.44139 6.65419,-1.13262 9.9365,-1.86352 3.41438,-0.76004 6.81097,-1.59283 10.19058,-2.48514 1.28733,-0.33988 2.57257,-0.68833 3.85239,-1.05521 0.77287,-0.22154 1.54833,-0.43986 2.30721,-0.70576 -0.76664,0.24261 -1.54693,0.43673 -2.32642,0.63468 -1.28973,0.32748 -2.58394,0.63628 -3.88019,0.93652 -3.40303,0.78823 -6.81912,1.51602 -10.24788,2.17012 -3.29892,0.62912 -6.60409,1.21672 -9.92716,1.55063 -1.16175,0.11595 -2.31468,0.21233 -3.44753,0.16391 -0.37495,-0.0173 -0.73296,-0.0439 -1.05936,-0.12467 0,0 -10e-6,0 -10e-6,0 -0.21456,-0.0709 -0.3839,-0.10261 -0.41706,-0.17539 0,0 0,0 0,-1e-5 -0.83346,-0.83361 -1.89146,-1.28414 -2.83851,-1.69181 -1.60386,-0.7144 -3.25463,-1.29551 -4.90396,-1.83507 -4.44525,-1.45552 -8.98231,-2.61183 -13.54285,-3.61011 -4.62596,-1.01399 -9.30924,-1.87878 -14.06362,-2.34486 -1.83077,-0.18073 -3.69787,-0.30518 -5.59378,-0.23791 -1.21094,0.0164 -2.6007,0.11902 -3.97979,0.74886 -6.60865,3.18118 -13.61111,5.5405 -20.67011,7.8183 -10e-6,0 -2e-5,0 -2e-5,10e-6 -7.96928,2.56748 -16.02782,4.93594 -24.04852,7.55145 -7.86065,2.56062 -15.72392,5.33513 -23.32017,8.89652 -6.60137,3.07607 -13.13961,6.82658 -18.61188,12.10556 -5.17878,5.04167 -9.48957,10.62828 -14.17822,15.50087 -5.40209,5.6053 -11.60732,10.38892 -18.48108,13.67104 -4.6386,2.30805 -10.32695,2.8069 -16.26891,3.57279 -5.81282,0.63072 -12.20762,1.32219 -18.38141,4.19975 -0.90831,0.44497 -2.04726,0.80494 -3.34272,1.25422 0,10e-6 -1e-5,10e-6 -1e-5,10e-6 -1.61526,0.54636 -3.28205,1.07842 -4.98301,1.65384 -1e-5,0 -1e-5,0 -2e-5,10e-6 -1.62697,0.5472 -3.32468,1.14309 -5.05472,1.88335 -1.09389,0.37106 -2.6429,1.11758 -4.32947,2.61738 -7.29539,7.09698 -13.41693,15.29263 -18.48428,24.00935 -4.92389,8.38595 -9.04688,17.57725 -11.04534,27.55876 z"
         style="opacity:0.52263375;fill:#9f6012;fill-opacity:1;fill-rule:evenodd;stroke:none;filter:url(#filter4001)" />
      <path
         transform="matrix(1.0100779,0,0,1.0100779,5.3625284,-20.157193)"
         inkscape:connector-curvature="0"
         inkscape:original-d="m 242.69974,586.30357 c 8.9905,-5.9113 7.9569,-25.37542 -2.75261,-46.79443 -7.44576,-14.8915 1.13096,-21.45542 -16.51568,-30.27874 -11.67108,-5.83554 -36.76053,3.15236 -45.41812,-5.50523 -4.38136,-4.38136 -16.0454,-8.69357 -19.2683,-15.13937 -4.97198,-9.94397 -7.01314,-23.52883 -13.76306,-30.27874 -8.6133,-8.6133 -28.51417,-3.74066 -37.16028,-12.38677 -6.97531,-6.9753 -11.765205,-15.89411 -19.268297,-23.39721 -3.628165,-3.62816 1.210382,-15.22233 -17.891986,-24.77352"
         inkscape:path-effect="#path-effect3866-2"
         id="path3864-8"
         d="m 239.95279,582.12574 5.4939,8.35566 c 3.49744,-2.51185 5.69842,-5.93065 6.72621,-9.4316 1.32382,-4.32107 1.53358,-8.62076 1.19959,-12.59443 0,0 0,-10e-6 0,-10e-6 -0.87061,-11.1246 -4.79765,-21.46371 -9.71665,-30.80058 0,0 0,0 0,0 -1.41346,-2.68701 -2.43265,-5.60977 -3.04267,-8.62989 -0.45671,-2.24659 -0.69671,-4.87409 -1.34588,-7.73932 -0.64644,-2.89139 -1.97409,-5.71571 -4.03952,-8.11603 -3.05028,-3.34141 -6.72572,-5.48042 -10.21938,-7.09303 -4.16355,-1.91122 -8.44147,-2.31163 -12.28824,-2.28675 0,0 -1e-5,0 -1e-5,0 -4.57131,-0.0445 -8.98966,0.34534 -13.28149,0.63492 -1e-5,0 -1e-5,0 -1e-5,0 -4.14553,0.26311 -8.14675,0.53027 -11.95977,0.11207 -1.6086,-0.17991 -3.13401,-0.44668 -4.49317,-0.95186 -1.18388,-0.4475 -2.26236,-1.02146 -3.04047,-1.79162 -1.60311,-1.5285 -3.32349,-2.63999 -4.92038,-3.60062 -1.94904,-1.19601 -3.88729,-2.28213 -5.736,-3.4004 -1.86768,-1.13568 -3.6534,-2.27216 -5.22402,-3.57124 -1.36824,-1.16412 -2.588,-2.3359 -3.25282,-3.66869 0,0 0,0 0,-1e-5 -2.58479,-4.91252 -4.28318,-10.45486 -6.38784,-15.98603 -1e-5,0 -1e-5,-1e-5 -1e-5,-1e-5 -1.85211,-5.02331 -4.07602,-10.39819 -8.21109,-14.49031 -2.59632,-2.46335 -5.8412,-3.84646 -9.03335,-4.64567 -1e-5,0 -1e-5,0 -2e-5,0 -3.54347,-0.9124 -7.10653,-1.3006 -10.58255,-1.69412 -3.48987,-0.4034 -6.92745,-0.76786 -10.2055,-1.62216 -2.92452,-0.77951 -5.76385,-1.93062 -7.819,-3.94468 -7.13674,-6.87634 -12.290861,-15.92405 -19.633587,-23.03192 -0.937555,-0.84487 -1.222079,-2.322 -1.565246,-3.76629 -0.450457,-2.04334 -0.868138,-4.13444 -1.622294,-6.13617 -1.022326,-2.70293 -2.609089,-5.16716 -4.585769,-7.24274 -2.965886,-3.11146 -6.660986,-5.40208 -10.504347,-7.24265 3.778471,1.97035 7.378409,4.37962 10.1841,7.53747 1.867657,2.10029 3.328244,4.55358 4.223422,7.19293 0.66393,1.94914 0.998187,4.0082 1.384071,6.07837 0.246509,1.456 0.559502,3.10251 1.714723,4.35042 6.95941,7.19428 11.737597,16.33671 18.903007,23.7625 2.39281,2.4339 5.53003,3.89433 8.66626,4.79885 3.4792,1.02326 7.03077,1.53345 10.49413,2.04568 3.47242,0.5215 6.89403,1.00335 10.10478,1.96143 0,10e-6 0,10e-6 0,10e-6 2.85403,0.87519 5.57508,2.08808 7.41497,4.06094 3.39743,3.44037 5.12661,8.39431 6.88542,13.39289 1e-5,0 1e-5,10e-6 1e-5,10e-6 1.84809,5.43945 3.41159,11.17084 6.04175,16.68823 1.08676,2.17035 2.64529,3.88956 4.25559,5.26874 1.82084,1.59681 3.7595,2.94069 5.66703,4.17902 1.90476,1.24207 3.79885,2.38954 5.58947,3.5757 1.50655,1.01626 2.89253,1.94095 3.89129,3.01432 1.44086,1.4488 3.13341,2.49034 4.8766,3.17414 1.93809,0.76918 3.90587,1.21053 5.80526,1.46636 10e-6,0 10e-6,0 2e-5,0 4.44816,0.60794 8.81369,0.49744 12.98269,0.34986 1e-5,0 1e-5,0 2e-5,0 4.39506,-0.13951 8.66814,-0.37957 12.79105,-0.18556 1e-5,0 1e-5,0 1e-5,0 3.54422,0.22767 6.86779,0.52704 9.31743,1.92242 3.10862,1.68853 5.97816,3.36694 7.737,5.62552 1.10063,1.2864 1.79322,3.03384 2.17044,4.89303 0.43725,2.17656 0.57109,4.71788 1.03874,7.5453 0.62454,3.75652 1.77069,7.44137 3.43772,10.91534 1e-5,10e-6 1e-5,10e-6 1e-5,2e-5 4.23317,8.96746 7.51405,18.31766 7.81097,27.62461 0,0 0,10e-6 0,10e-6 0.081,3.28947 -0.10194,6.404 -1.08522,8.9824 -0.77304,1.88454 -1.76397,3.54731 -3.01138,4.15522 z"
         style="opacity:0.52263375;fill:#9f6012;fill-opacity:1;fill-rule:evenodd;stroke:none;filter:url(#filter4005)" />
      <path
         transform="matrix(1.0100779,0,0,1.0100779,5.3625284,-20.157193)"
         inkscape:connector-curvature="0"
         inkscape:original-d="m 333.53598,554.64852 c -0.93535,-5.01242 3.71264,-51.88338 17.89198,-66.06272 2.96893,-2.96893 10.05588,-2.27532 13.76307,-4.12892 9.56409,-4.78205 18.88856,-14.75964 26.14983,-22.02091 9.01821,-9.01821 31.16778,-3.64165 39.91289,-12.38675 17.32307,-17.32308 14.61704,-38.96358 38.53659,-50.92335"
         inkscape:path-effect="#path-effect3870-1"
         id="path3868-3"
         d="m 328.62083,555.56572 9.8303,-1.8344 c -0.0219,0.0659 -0.0165,-0.14212 -0.0567,-0.60575 -0.0321,-0.61367 -0.0327,-1.27919 -0.0249,-1.99391 0.0255,-2.10693 0.15337,-4.26073 0.31889,-6.45715 0,-1e-5 0,-1e-5 0,-1e-5 0.47615,-6.27427 1.28451,-12.54058 2.38162,-18.7703 1.23533,-6.96935 2.78371,-13.82026 5.06581,-20.3682 1.03059,-2.9518 2.18228,-5.80519 3.59445,-8.46607 0,0 0,0 0,0 1.21765,-2.26498 2.5312,-4.36317 4.14484,-6.03698 0.41172,-0.88679 2.36152,-1.0453 4.69439,-1.67151 0,0 0,0 0,0 2.1903,-0.35361 5.04169,-0.66147 8.02544,-2.09675 10.79823,-5.78621 18.61473,-14.91208 26.42871,-23.14593 1.81073,-2.00645 4.66008,-3.20219 7.66901,-4.10355 3.45106,-0.98921 7.1487,-1.46472 10.921,-1.98093 1e-5,0 1e-5,0 1e-5,0 3.73433,-0.50068 7.58543,-0.98842 11.38613,-2.02308 3.30566,-0.86691 6.6972,-2.32885 9.27102,-4.94491 4.0114,-4.19485 7.24196,-9.01916 9.88163,-14.08757 0,0 0,0 0,-1e-5 2.41499,-4.63569 4.37177,-9.42654 6.54333,-14.08271 0,-1e-5 0,-1e-5 0,-1e-5 2.13914,-4.5784 4.53862,-9.04797 7.71165,-12.95471 3.61861,-4.462 8.25139,-8.10619 13.38291,-10.81541 -5.24629,2.47968 -10.07834,5.93472 -13.96978,10.31708 -3.40336,3.83807 -6.06033,8.2819 -8.41961,12.81367 0,10e-6 -1e-5,10e-6 -1e-5,10e-6 -2.39754,4.59715 -4.55935,9.28817 -7.11423,13.69687 0,0 0,0 0,10e-6 -2.7879,4.80892 -6.09212,9.30417 -10.05003,13.07864 -2.05114,2.00889 -5.00644,3.04045 -8.04408,3.76825 -3.53029,0.80838 -7.22981,1.09792 -11.00683,1.44567 -3.77844,0.33669 -7.66895,0.67602 -11.57438,1.59024 -3.45636,0.77149 -7.04184,2.20112 -9.95332,4.91687 -8.37098,7.95112 -16.19664,16.44582 -25.87095,20.89589 -1.41213,0.76266 -3.63226,0.75029 -6.29133,1.19567 0,0 -10e-6,0 -10e-6,0 -2.38116,0.15049 -5.54842,0.80243 -8.51496,3.2939 0,0 0,10e-6 -10e-6,10e-6 -2.3069,2.24673 -4.12129,4.79788 -5.61152,7.37115 -10e-6,1e-5 -10e-6,1e-5 -10e-6,1e-5 -1.77061,3.02591 -3.2178,6.17129 -4.46731,9.32447 -2.76959,6.97797 -4.75341,14.18115 -6.34406,21.37103 0,0 0,10e-6 0,10e-6 -1.43066,6.43535 -2.56636,12.95334 -3.36024,19.53133 0,0 0,10e-6 0,10e-6 -0.27802,2.29201 -0.51889,4.63601 -0.65786,7.03637 -0.0477,0.80727 -0.0821,1.66518 -0.0802,2.57413 -0.0191,0.48125 0.01,1.2236 0.16124,2.21856 z"
         style="opacity:0.52263375;fill:#9f6012;fill-opacity:1;fill-rule:evenodd;stroke:none;filter:url(#filter4009)" />
      <path
         transform="matrix(1.0100779,0,0,1.0100779,5.3625284,-20.157193)"
         inkscape:connector-curvature="0"
         inkscape:original-d="m 340.41751,499.59625 c 3.51557,2.59271 24.08901,-17.20018 8.25784,-33.03135 -3.21138,-3.21139 -10.55168,-2.29385 -13.76306,-5.50523 -4.80758,-4.80758 -1.3336,-15.09666 -5.50523,-19.26829 -7.80081,-7.80082 -24.94928,-12.90412 -35.78398,-16.51569 -7.85652,-2.61884 -12.00408,-12.19542 -17.89198,-15.13936"
         inkscape:path-effect="#path-effect3874-9"
         id="path3872-0"
         d="m 343.3852,495.57222 -5.93538,8.04806 c 1.5612,0.94559 2.88872,1.31632 3.90738,1.17348 1.23393,-0.0866 2.16667,-0.31287 2.79608,-0.60871 1.83258,-0.78142 3.22649,-1.74408 4.26018,-2.67965 3.12544,-2.67288 5.54815,-5.91598 7.28478,-9.38902 2.10748,-4.05927 3.25081,-8.77021 2.87465,-13.58792 -0.60808,-5.79894 -3.48111,-10.83459 -7.40322,-14.45787 -1.47131,-1.32045 -3.01949,-2.0849 -4.42631,-2.47942 -1.53696,-0.47552 -2.96842,-0.73928 -4.25711,-0.96404 -10e-6,0 -10e-6,-1e-5 -10e-6,-1e-5 -1.30852,-0.24357 -2.48483,-0.43531 -3.49167,-0.74798 -0.88196,-0.31127 -1.61033,-0.56085 -1.96689,-0.93486 0,0 -10e-6,0 -10e-6,0 -0.75027,-0.57411 -1.26344,-1.70891 -1.68646,-3.00206 -0.43573,-1.44925 -0.6113,-3.12696 -0.81076,-4.93449 -0.17503,-1.73705 -0.34327,-3.63661 -0.80443,-5.61259 -0.35469,-1.74298 -1.1789,-3.63244 -2.72013,-5.20259 -5.19784,-4.79165 -11.59582,-7.44388 -17.76172,-9.67794 0,0 0,0 -10e-6,0 -6.3978,-2.35146 -12.90748,-4.14474 -19.35402,-6.04009 -10e-6,0 -10e-6,0 -10e-6,0 -3.71441,-1.04386 -6.79828,-3.95643 -9.65004,-6.9152 0,0 -1e-5,0 -1e-5,0 -1.38087,-1.44158 -2.73271,-2.93673 -4.19972,-4.31696 -1.2944,-1.21999 -2.69867,-2.37128 -4.30926,-3.10603 1.55415,0.84762 2.84495,2.07829 4.04025,3.37242 1.35144,1.46585 2.58135,3.03983 3.86628,4.58778 2.63321,3.19228 5.61434,6.41803 9.71839,7.98033 0,0 0,0 0,0 6.31311,2.35787 12.65181,4.59967 18.70537,7.33367 5.8953,2.69204 11.73223,5.55886 15.74684,9.97968 0.62644,0.59752 0.90227,1.72729 1.16794,2.98643 0.2587,1.50771 0.26691,3.17786 0.33576,4.98972 0.0506,1.8311 0.14041,3.81197 0.56793,5.9063 0,0 0,0 0,1e-5 0.37804,1.99514 1.27414,4.08332 2.91704,5.90238 0,0 0,0 0,10e-6 1.31989,1.30244 2.78426,2.12118 4.14047,2.59193 1.48298,0.55726 2.89531,0.91376 4.16402,1.23045 0,0 0,0 0,0 1.28854,0.3355 2.44573,0.61997 3.39859,1.0144 0.83135,0.38749 1.47592,0.69138 1.68105,1.04737 2.61241,2.91124 4.41692,6.52551 4.36251,9.95118 0.0914,2.9723 -1.00756,6.06142 -2.63886,8.85229 0,0 0,0 0,0 -1.49414,2.44632 -3.34063,4.60577 -5.48376,6.14224 0,0 -1e-5,10e-6 -1e-5,10e-6 -0.79362,0.52436 -1.35348,0.91488 -1.71216,0.95132 -0.12054,-0.0159 0.0275,-0.0256 0.4611,-0.097 0.42355,-0.13162 1.13319,0.12071 2.21535,0.71301 z"
         style="opacity:0.52263375;fill:#9f6012;fill-opacity:1;fill-rule:evenodd;stroke:none;filter:url(#filter4013)" />
      <path
         transform="matrix(1.0100779,0,0,1.0100779,5.3625284,-20.157193)"
         inkscape:connector-curvature="0"
         inkscape:original-d="m 332.15967,540.88545 c -0.38937,-4.54792 -4.82038,-6.65325 -17.89198,-11.01045 -9.90387,-3.3013 -22.38864,1.88059 -31.65506,-2.75261 -10.50255,-5.25129 -13.85376,-20.82598 -17.89199,-28.90244 -4.66213,-9.32427 -18.1079,-14.19489 -23.39721,-24.77352 -1.48231,-2.96462 -3.03251,-11.83856 -6.88153,-13.76307 -21.26246,-10.63123 -82.34281,-7.35271 -66.06272,-39.91289"
         inkscape:path-effect="#path-effect3878-8"
         id="path3876-5"
         d="m 327.17789,541.31196 9.96356,-0.85302 c -0.18189,-1.95262 -0.90596,-3.85715 -2.15167,-5.54465 -1.49771,-1.82724 -3.10846,-3.02951 -4.56819,-3.77899 -5.02368,-2.75949 -10.12788,-4.16706 -14.7254,-5.54577 0,0 0,0 -10e-6,0 -6.40764,-1.83836 -12.46287,-1.24879 -17.72382,-0.74789 0,0 -10e-6,0 -10e-6,0 -5.23401,0.26131 -10.09958,0.73499 -13.65358,-1.13152 -4.25415,-1.75286 -7.3144,-6.4698 -9.98724,-11.45489 -2.37906,-4.67472 -4.11006,-10.10669 -6.87858,-15.40143 0,0 -10e-6,-10e-6 -10e-6,-10e-6 -1.49473,-2.79615 -3.49732,-5.08894 -5.60949,-7.02039 0,0 0,0 0,-10e-6 -2.25873,-2.0885 -4.62595,-3.88137 -6.89995,-5.62559 -4.6152,-3.6289 -9.169,-7.11459 -11.56041,-11.7912 -0.41122,-0.73747 -0.71108,-1.70242 -1.09769,-2.78728 -0.47431,-1.36422 -0.95247,-2.77572 -1.51546,-4.19933 -0.55083,-1.40887 -1.20809,-2.86854 -2.10317,-4.27255 -0.69643,-1.18055 -1.77506,-2.39597 -3.34852,-3.22678 -3.27394,-1.54387 -6.68112,-2.5339 -10.03507,-3.355 -10e-6,0 -10e-6,0 -10e-6,-1e-5 -4.03792,-0.99596 -8.09632,-1.75587 -12.13469,-2.4734 -8.60905,-1.53334 -17.20761,-2.7988 -25.56866,-5.01179 0,0 0,0 -1e-5,0 -3.69729,-0.97991 -7.34223,-2.13114 -10.77079,-3.75935 -2.84516,-1.35743 -5.57084,-3.02933 -7.6368,-5.36233 -1.85002,-2.08129 -3.05538,-4.77189 -3.25826,-7.58324 -0.26954,-3.62446 0.88482,-7.27335 2.46522,-10.61507 -1.72513,3.26935 -3.05269,6.88195 -2.95004,10.63952 0.0867,2.93254 1.21208,5.81545 3.08521,8.11757 2.07728,2.54499 4.84392,4.43756 7.71901,5.95068 3.45894,1.82808 7.14346,3.17816 10.85098,4.33184 8.38516,2.61218 17.00896,4.27678 25.4874,6.16906 3.986,0.89116 7.94345,1.81166 11.80684,2.94821 3.22512,0.95455 6.36585,2.00505 9.18697,3.50871 0.57684,0.24434 1.06555,0.99944 1.63267,1.86418 0,0 0,0 0,0 0.63251,1.0687 1.10852,2.30464 1.57221,3.61947 0,0 0,10e-6 0,10e-6 0.45384,1.30633 0.84966,2.67534 1.27239,4.08273 0.29925,1.03425 0.63607,2.2191 1.22095,3.47381 2.88143,5.86907 7.7363,10.16079 12.30718,13.92309 2.21718,1.86942 4.38434,3.65436 6.2692,5.57332 0,0 1e-5,0 1e-5,1e-5 1.7312,1.78565 3.25174,3.62723 4.14817,5.61341 0,10e-6 0,10e-6 0,10e-6 2.24938,4.74106 3.70841,10.1698 6.16517,15.61987 0,10e-6 0,10e-6 0,10e-6 2.4691,5.78065 6.33604,11.74598 12.75299,15.32868 5.91861,2.86978 12.18269,2.94069 17.52337,2.62002 10e-6,0 10e-6,0 10e-6,0 5.5174,-0.0923 10.57626,-0.56943 14.40933,1.00579 0,0 0,0 10e-6,10e-6 4.73888,1.73342 9.2167,3.09567 12.67824,5.32163 0.84883,0.6069 1.46651,1.00215 1.56873,1.32189 0.0575,0.0614 0.0875,0.28744 0.0917,0.50796 z"
         style="opacity:0.52263375;fill:#9f6012;fill-opacity:1;fill-rule:evenodd;stroke:none;filter:url(#filter4017)" />
      <path
         transform="matrix(1.0100779,0,0,1.0100779,5.3625284,-20.157193)"
         inkscape:connector-curvature="0"
         inkscape:original-d="m 365.19103,553.27222 c 13.00416,-14.86671 -13.27184,13.27182 8.25784,-8.25784 7.88134,-7.88134 18.99448,-12.11296 26.14982,-19.2683 9.30559,-9.30559 34.47739,-2.82234 44.04182,-12.38676 4.28948,-4.28948 5.34466,-9.47359 9.63414,-13.76307 22.64172,-22.64171 76.35776,-35.42626 107.35192,-50.92334 6.19176,-3.09588 16.8129,-0.55784 23.39722,-2.75262"
         inkscape:path-effect="#path-effect3882-1"
         id="path3880-4"
         d="m 361.42762,549.9803 7.52682,6.58384 c 1.05104,-1.24728 2.14954,-2.54346 3.2419,-3.92786 -1.00187,-1.30039 -1.87023,-2.77318 -2.63855,-4.43898 -0.17898,-0.10842 -0.35377,-0.22039 -0.52658,-0.33704 -0.0836,-0.0564 -0.16442,-0.11397 -0.25294,-0.17355 -0.042,-0.0283 -0.0921,-0.0518 -0.13982,-0.0716 -0.11675,-0.0484 -0.22996,-0.0928 -0.34169,-0.13879 -3e-5,-2e-5 -6e-5,-3e-5 -9e-5,-4e-5 -1.23999,-0.51047 -2.28588,-1.12024 -3.16584,-1.86393 -0.28657,0.28833 -0.54554,0.56133 -0.78138,0.81486 0,0 0,10e-6 -10e-6,10e-6 -0.61243,0.65659 -1.20838,1.31907 -1.79019,1.98489 0,0 0,0 0,0 -0.43025,0.48567 -0.95779,1.08664 -1.53102,1.83902 2e-5,3e-5 5e-5,6e-5 8e-5,9e-5 1.01603,1.18477 1.96076,2.4823 2.84043,3.89601 2e-5,4e-5 5e-5,8e-5 7e-5,1.1e-4 0.2195,0.15611 0.43416,0.31564 0.64676,0.47974 0.10902,0.0842 0.21517,0.17041 0.3305,0.25655 2e-5,2e-5 4e-5,3e-5 6e-5,5e-5 0.0794,0.0593 0.1668,0.11075 0.25054,0.16043 0.19583,0.11618 0.38617,0.22865 0.5727,0.34352 0.81485,0.5018 1.55595,1.03324 2.23049,1.60546 1.15462,-0.97783 2.05277,-1.90885 2.80499,-2.67676 0,0 0,0 10e-6,-10e-6 2.02175,-2.02617 3.99476,-4.06777 5.94869,-6.09728 3.35773,-3.56675 7.77942,-6.47978 12.3917,-9.54459 4.40829,-2.86163 9.17503,-5.93432 13.32202,-10.15982 1.52646,-1.81832 4.38803,-2.7941 7.50109,-3.65957 3.71963,-0.92558 7.75742,-1.2951 11.94957,-1.74202 4.17178,-0.42568 8.5407,-0.86159 12.93783,-1.93708 0,0 0,0 0,0 3.79928,-0.85679 7.8288,-2.51865 11.02846,-5.67295 4.56093,-4.87115 6.10294,-10.67583 9.4083,-13.98892 5.904,-6.17772 13.34497,-10.97959 21.08293,-15.30192 9.0136,-5.01653 18.51886,-9.24211 28.13491,-13.26033 0,0 10e-6,0 10e-6,0 9.89429,-4.13283 19.92976,-7.99838 29.90768,-12.03603 10e-6,0 10e-6,-10e-6 10e-6,-10e-6 8.96089,-3.62492 17.92799,-7.34646 26.50945,-11.84104 0,-1e-5 1e-5,-1e-5 1e-5,-1e-5 1.56901,-0.82924 3.36634,-1.23568 5.1813,-1.48773 2.03093,-0.27919 4.09914,-0.34949 6.17058,-0.40216 3.96904,-0.0963 8.09263,0.0655 11.84439,-1.2646 -3.79945,1.18701 -7.85676,0.8583 -11.84725,0.8122 -2.07459,-0.0265 -4.16135,-0.0341 -6.24813,0.17122 -1.86433,0.18085 -3.75823,0.53978 -5.50278,1.36732 -8.69666,4.14448 -17.74134,7.49906 -26.82134,10.78017 -10e-6,0 -10e-6,0 -2e-5,1e-5 -10.10261,3.64915 -20.27775,7.13201 -30.37775,10.90761 -9.80843,3.66483 -19.58531,7.57802 -29.01835,12.36255 -8.08873,4.08669 -16.08267,8.86201 -22.85139,15.35701 -4.64168,4.63395 -6.47388,10.46134 -9.85998,13.53722 -1.90115,1.94651 -4.95541,2.89571 -8.1874,3.6507 -10e-6,0 -10e-6,0 -2e-5,0 -3.80747,0.80524 -7.86707,1.03047 -12.08224,1.32015 -4.1581,0.26531 -8.51291,0.52204 -12.97345,1.41816 -3.8017,0.67443 -7.94079,2.18195 -11.42358,5.37289 -3.34583,3.26732 -7.72865,5.77313 -12.28329,8.56397 0,0 0,0 -1e-5,10e-6 -4.78121,2.85921 -9.80758,5.9822 -14.30262,10.26821 -2.02262,1.94702 -4.03281,3.87577 -6.05694,5.75556 -1e-5,0 -1e-5,0 -1e-5,0 -0.9103,0.83712 -1.63747,1.55826 -2.27818,2.03536 0.53648,0.68409 1.13945,1.32865 1.80214,1.92227 0.1517,0.13589 0.30659,0.26996 0.46298,0.39609 3e-5,2e-5 7e-5,5e-5 1e-4,8e-5 0.0668,0.0539 0.13123,0.10521 0.20497,0.14798 4e-5,2e-5 8e-5,4e-5 1.2e-4,6e-5 0.10727,0.0622 0.22642,0.12262 0.34541,0.18354 4e-5,2e-5 8e-5,4e-5 1.2e-4,6e-5 0.232,0.11877 0.47222,0.2359 0.71788,0.35023 5e-5,7e-5 10e-5,1.4e-4 1.5e-4,2e-4 0.96941,1.27064 2.01662,2.43356 3.13584,3.48467 5e-5,5e-5 1.1e-4,1.1e-4 1.7e-4,1.6e-4 0.24941,-0.3122 0.63432,-0.70305 1.10756,-1.21427 0,0 0,0 10e-6,-10e-6 0.5452,-0.57768 1.09374,-1.14297 1.64767,-1.69306 0,0 0,0 0,0 0.21881,-0.21683 0.41731,-0.41156 0.59943,-0.57958 -10e-6,-3e-5 -3e-5,-5e-5 -4e-5,-8e-5 -0.61749,-0.99922 -1.40969,-1.87797 -2.35057,-2.59996 -2e-5,-2e-5 -4e-5,-4e-5 -7e-5,-6e-5 -0.0848,-0.065 -0.17084,-0.12961 -0.25617,-0.18811 -0.0349,-0.0239 -0.068,-0.0438 -0.10957,-0.0586 -0.0877,-0.0311 -0.18515,-0.0627 -0.28195,-0.0939 -0.20014,-0.0645 -0.40715,-0.12709 -0.61885,-0.18658 -1.09542,-1.17655 -2.34569,-2.19926 -3.71988,-3.04387 -0.98525,1.15883 -2.05782,2.32793 -3.16889,3.55243 z"
         style="opacity:0.52263375;fill:#9f6012;fill-opacity:1;fill-rule:evenodd;stroke:none;filter:url(#filter4021)" />
      <path
         inkscape:connector-curvature="0"
         id="path3813-79-0"
         d="m 554.7692,408.20778 c -0.58532,3.52772 0.4727,4.37582 1.73184,5.77553 4.29728,4.77704 25.44113,2.29148 27.70938,4.81295 2.5831,2.87148 16.45342,6.09676 20.782,7.7007 1.17068,0.43379 4.33089,10e-4 5.1955,0.96259 7.66651,8.5224 -13.77098,23.28821 -10.39101,30.80285 2.31397,5.14459 -4.62471,6.42087 -8.65916,8.6633 -4.38575,2.43768 -21.6716,6.7644 -23.3798,8.66331 -1.78685,1.98633 -9.20451,-2.58465 -12.12285,-0.96261 -7.46381,4.14856 -14.07665,8.90191 -25.11159,4.81294 -3.77824,-1.40001 -12.94193,-8.20802 -17.31837,-5.77553 -6.2882,3.49513 -9.68202,12.51366 -16.45242,12.51366 -6.42102,0 -43.77232,-3.75367 -40.69812,-10.58846 5.2057,-11.57372 15.65696,-6.29601 25.11161,-11.55108 13.50468,-7.50618 29.41294,-28.22547 41.56404,-32.72801 11.13768,-4.12704 27.95652,-5.0877 34.6367,-12.51366 0.57116,-0.63492 0.38969,-5.67931 0.86593,-6.73813"
         style="fill:#23a500;fill-opacity:1;stroke:none" />
      <path
         transform="matrix(1.0100779,0,0,1.0100779,5.3625284,-20.157193)"
         inkscape:connector-curvature="0"
         inkscape:original-d="m 354.18058,569.78789 c 9.73116,-11.57333 13.58302,-20.46456 23.39721,-30.27875 6.4041,-6.4041 33.01953,-12.38084 41.28919,-16.51568 21.40468,-10.70233 46.48202,-21.70849 59.1812,-34.40766 5.84936,-5.84936 40.25044,-13.24369 49.54703,-17.89198 14.89364,-7.44682 49.67393,-38.47315 71.56794,-27.52614"
         inkscape:path-effect="#path-effect3886-2"
         id="path3884-2"
         d="m 350.35361,566.57008 7.65394,6.43562 c 4.32861,-5.34322 8.03104,-10.9299 11.6612,-16.35894 3.39671,-5.05621 6.91361,-9.89012 10.96793,-14.07873 1.29855,-1.54077 3.7892,-2.57307 6.58436,-3.9401 10e-6,0 10e-6,0 10e-6,0 3.67168,-1.67523 7.56056,-3.08914 11.5399,-4.4896 0,-10e-6 0,-10e-6 1e-5,-10e-6 4.01907,-1.41139 8.11605,-2.75839 12.23047,-4.19766 3.01239,-1.04084 6.25497,-2.13461 9.45866,-3.78096 0,0 1e-5,0 1e-5,0 10.79939,-5.63988 21.86257,-11.0203 32.64482,-17.07427 9.34701,-5.21578 18.88173,-10.9102 26.60144,-18.85145 0.60766,-0.69259 1.6356,-1.24051 2.80134,-1.89203 1.64148,-0.8756 3.40164,-1.62504 5.21547,-2.35195 0,0 0,-1e-5 1e-5,-1e-5 4.66417,-1.86499 9.49235,-3.436 14.35902,-4.99714 5.0298,-1.61237 10.10412,-3.16395 15.15822,-4.83353 2.10304,-0.69454 4.21271,-1.41168 6.30732,-2.20145 0,0 0,0 10e-6,0 1.55076,-0.58241 3.13774,-1.20895 4.68388,-2.0112 2.28542,-1.19412 4.42215,-2.57033 6.50833,-3.95196 2.65647,-1.75688 5.25983,-3.56918 7.86203,-5.36488 10e-6,0 10e-6,0 2e-5,0 6.0649,-4.18384 12.1424,-8.32142 18.50593,-11.97215 0,0 10e-6,0 10e-6,0 6.27233,-3.59369 12.80817,-6.82093 19.81333,-8.53273 3.10239,-0.75819 6.29736,-1.1989 9.49198,-1.06308 3.01236,0.12793 6.0225,0.7968 8.75989,2.10581 -2.68964,-1.4045 -5.69636,-2.18961 -8.74069,-2.42551 -3.22618,-0.24989 -6.48497,0.0791 -9.65666,0.7392 -7.15412,1.48892 -13.91144,4.51937 -20.35566,7.92707 -6.55168,3.46004 -12.82248,7.41081 -19.03791,11.38535 -2.66907,1.70624 -5.32276,3.41844 -8.00518,5.05951 -2.11893,1.29472 -4.22535,2.55262 -6.39826,3.58767 -1.39183,0.66673 -2.89026,1.1923 -4.43251,1.7157 0,0 -1e-5,0 -1e-5,0 -2.05849,0.69503 -4.15012,1.32427 -6.25858,1.93976 -5.0636,1.47761 -10.1761,2.84591 -15.29193,4.28954 -4.93011,1.38979 -9.89456,2.81665 -14.7984,4.57633 -1.90283,0.68107 -3.83226,1.42852 -5.73455,2.35225 -1.28282,0.59172 -2.71868,1.37387 -4.05281,2.62307 -7.35087,7.12933 -16.63623,12.15755 -26.05064,17.05384 -10.7832,5.56942 -21.95285,10.51963 -33.0655,15.83576 0,10e-6 -1e-5,10e-6 -1e-5,10e-6 -2.56444,1.23772 -5.50963,2.08526 -8.62056,3.0678 -4.07225,1.26591 -8.21301,2.46763 -12.37865,3.7673 0,0 -1e-5,0 -1e-5,10e-6 -4.08669,1.27129 -8.24321,2.62679 -12.36961,4.32632 -2.90563,1.1001 -6.3023,2.60999 -9.39612,5.46159 -4.74302,4.60872 -8.78341,9.72379 -12.49155,14.88067 -3.85044,5.32417 -7.57215,10.55628 -11.67374,15.23916 z"
         style="opacity:0.52263375;fill:#9f6012;fill-opacity:1;fill-rule:evenodd;stroke:none;filter:url(#filter4025)" />
      <path
         sodipodi:nodetypes="cssssssssssssssssccsscssc"
         inkscape:connector-curvature="0"
         id="path4035"
         d="m 227.47518,487.82951 c -0.61016,-1.60506 -3.50288,0.41309 -4.22792,-1.11071 -0.64966,-1.36538 2.8365,0.67207 4.22792,1.11071 3.98023,1.25478 5.99062,1.29697 8.98432,4.44287 2.76139,2.90178 9.52491,5.56628 12.15527,8.33036 3.76316,3.95448 4.06014,8.24223 8.45584,10.5518 3.84963,2.02267 43.28841,-2.5242 47.03559,-0.55536 7.92662,4.1648 26.89023,-0.58833 33.29486,2.7768 5.60223,2.94352 19.94807,6.10893 26.95298,6.10893 8.42259,0 17.16624,3.75375 25.36751,-0.55536 3.54634,-1.86331 8.7198,-0.97173 12.15528,-2.77679 1.27032,-0.66745 3.69942,-3.71391 3.69942,-2.22143 0,2.42883 -7.87988,3.28227 -9.51281,4.99822 -2.95614,3.10642 -4.2942,8.40001 -7.39886,11.66251 -0.54754,0.57538 -0.58354,2.33712 -1.05698,3.33215 -1.18106,2.4822 -3.11982,4.38914 -4.22792,5.55357 -1.62562,1.70827 -2.51407,18.1919 -7.39886,23.32504 -1.23314,1.29584 1.62882,13.43037 1.62882,13.43037 l -127.88732,0.2375 c 0,0 1.21664,-13.78141 -0.57907,-17.55538 -2.57444,-5.41067 -7.15491,-9.48375 -10.0413,-15.55001 -1.25009,-2.62729 -1.38883,-5.69569 -2.64245,-8.33037 -0.24971,-0.52482 1.25443,-4.50998 1.58547,-5.55358 1.64869,-5.19751 -0.14553,-16.9666 -2.11396,-21.1036 -2.27442,-4.78009 -9.31832,-16.01654 -8.45583,-20.54824 z"
         style="fill:#934e0e;fill-opacity:1;stroke:none" />
      <path
         sodipodi:nodetypes="cscsssssssssc"
         inkscape:connector-curvature="0"
         id="path3813-7-7-5"
         d="m 560.77847,428.50611 c 1.75139,1.94692 11.15571,4.13371 14.09056,5.22121 0.79373,0.29412 2.93641,7.7e-4 3.52262,0.65266 5.19803,5.77833 -9.33695,15.78979 -7.04528,20.88484 1.56892,3.48812 -3.13562,4.35347 -5.87106,5.87388 -2.9736,1.65279 -14.6937,4.58637 -15.85189,5.87386 -1.21151,1.34677 -6.24081,-1.75245 -8.21949,-0.65265 -5.06061,2.81279 -9.54422,6.03564 -17.0261,3.26326 -2.5617,-0.94924 -8.77484,-5.56519 -11.74214,-3.91592 -4.26351,2.36976 -6.56458,8.48448 -11.15501,8.48448 -4.35359,0 -29.6784,-2.54505 -27.59403,-7.17917 3.52954,-7.84718 10.61569,-4.26879 17.02609,-7.83182 9.15641,-5.08932 19.94249,-19.13735 28.18113,-22.19015"
         style="fill:url(#linearGradient3846-6-3);fill-opacity:1;stroke:none" />
      <path
         inkscape:connector-curvature="0"
         id="path3813-79-2-3"
         d="m 378.88395,300.98301 c -2.09018,8.98545 0.72773,11.57907 4.0294,15.68356 11.26816,14.00804 70.16525,15.17355 76.11296,22.56742 6.77332,8.42024 44.76426,21.84434 56.5409,27.59116 3.18502,1.55426 11.99595,1.57073 14.26314,4.38824 20.10285,24.9908 -41.23983,55.73486 -32.87644,76.54842 5.72573,14.24916 -13.6635,15.06755 -25.13665,19.45489 -12.47217,4.76937 -60.92764,9.79901 -65.9116,14.13195 -5.21343,4.53239 -25.15218,-10.06677 -33.45134,-6.8932 -21.22557,8.11676 -40.17437,18.11797 -70.19676,3.46748 -10.27933,-5.01615 -34.75709,-26.07885 -47.2028,-21.31962 -17.88237,6.83835 -28.48166,29.12325 -47.23509,26.67509 -17.78573,-2.32183 -120.746814,-25.6141 -111.323085,-42.32143 15.957675,-28.29134 44.205335,-10.7527 71.092435,-21.03438 38.40454,-14.68604 85.22305,-62.95069 119.47903,-70.29543 31.39901,-6.73219 78.1135,-3.15508 97.60406,-20.09969 1.66647,-1.44877 1.8343,-14.66558 3.29417,-17.25378"
         style="fill:url(#linearGradient4241);fill-opacity:1;stroke:none" />
      <path
         inkscape:connector-curvature="0"
         id="path3813-79"
         d="m 441.74714,385.8455 c -0.85445,4.6326 0.69005,5.74632 2.52815,7.58442 6.27319,6.2732 37.13908,3.00917 40.45028,6.32036 3.77083,3.77083 24.01879,8.00627 30.33768,10.11256 1.70896,0.56966 6.32225,0.002 7.58441,1.26408 11.19161,11.19159 -20.10294,30.58204 -15.16885,40.45026 3.37795,6.75588 -6.75118,8.43189 -12.64069,11.37664 -6.40234,3.20116 -31.6363,8.88301 -34.12994,11.37664 -2.60845,2.60846 -13.43679,-3.39416 -17.69699,-1.26408 -10.89572,5.44788 -20.54917,11.68997 -36.65803,6.32035 -5.51549,-1.83849 -18.89269,-10.77878 -25.28144,-7.58442 -9.17956,4.5898 -14.13387,16.43292 -24.01732,16.43292 -9.37345,0 -63.89906,-4.92932 -59.41133,-13.90477 7.5993,-15.19859 22.85611,-8.26789 36.65806,-15.16885 19.7142,-9.85711 42.93716,-37.06566 60.67539,-42.97841 16.25884,-5.41961 40.81107,-6.68116 50.56282,-16.43292 0.83379,-0.83377 0.56888,-7.45807 1.2641,-8.8485"
         style="fill:#23a500;fill-opacity:1;stroke:none" />
      <path
         sodipodi:nodetypes="cscsssssssssc"
         inkscape:connector-curvature="0"
         id="path3813-7-7"
         d="m 435.5195,417.67983 c 2.55669,2.55669 16.28515,5.42838 20.56947,6.85648 1.15869,0.38624 4.28659,10e-4 5.14234,0.85707 7.58811,7.58809 -13.63013,20.73514 -10.28473,27.42596 2.29031,4.5806 -4.57741,5.71696 -8.57061,7.71356 -4.34088,2.17044 -21.44994,6.02283 -23.14067,7.71355 -1.76857,1.76859 -9.11037,-2.3013 -11.99886,-0.85706 -7.38749,3.69375 -13.93269,7.926 -24.85477,4.28531 -3.73959,-1.24653 -12.80956,-7.3082 -17.14124,-5.14237 -6.2239,3.11196 -9.58301,11.1418 -16.28415,11.1418 -6.35537,0 -43.32466,-3.34216 -40.28189,-9.42768 5.15244,-10.3049 15.49683,-5.60576 24.85477,-10.28473 13.36657,-6.68329 29.11214,-25.13116 41.13895,-29.14009"
         style="fill:url(#linearGradient3846-6);fill-opacity:1;stroke:none" />
      <path
         inkscape:connector-curvature="0"
         id="path3813-79-2"
         d="m 226.22944,389.73875 c -0.85445,4.6326 0.69005,5.74632 2.52815,7.58442 6.27319,6.2732 37.13908,3.00917 40.45028,6.32036 3.77083,3.77083 24.01879,8.00627 30.33768,10.11256 1.70896,0.56966 6.32225,0.002 7.58441,1.26408 11.19161,11.19159 -20.10294,30.58204 -15.16885,40.45026 3.37795,6.75588 -6.75118,8.43189 -12.64069,11.37664 -6.40234,3.20116 -31.6363,8.88301 -34.12994,11.37664 -2.60845,2.60846 -13.43679,-3.39416 -17.69699,-1.26408 -10.89572,5.44788 -20.54917,11.68997 -36.65803,6.32035 -5.51549,-1.83849 -18.89269,-10.77878 -25.28144,-7.58442 -9.17956,4.5898 -14.13387,16.43292 -24.01732,16.43292 -9.37345,0 -63.899056,-4.92932 -59.411326,-13.90477 7.5993,-15.19859 22.856106,-8.26789 36.658056,-15.16885 19.7142,-9.85711 42.93716,-37.06566 60.67539,-42.97841 16.25884,-5.41961 40.81107,-6.68116 50.56282,-16.43292 0.83379,-0.83377 0.56888,-7.45807 1.2641,-8.8485"
         style="fill:#23a500;fill-opacity:1;stroke:none" />
      <path
         sodipodi:nodetypes="cscsssssssssc"
         inkscape:connector-curvature="0"
         id="path3813-7-7-7"
         d="m 235.0018,416.39451 c 2.55669,2.55669 16.28515,5.42838 20.56947,6.85648 1.15869,0.38624 4.28659,10e-4 5.14234,0.85707 7.58811,7.58809 -13.63013,20.73514 -10.28473,27.42596 2.29031,4.5806 -4.57741,5.71696 -8.57061,7.71356 -4.34088,2.17044 -21.44994,6.02283 -23.14067,7.71355 -1.76857,1.76859 -9.11037,-2.3013 -11.99886,-0.85706 -7.38749,3.69375 -13.93269,7.926 -24.85477,4.28531 -3.73959,-1.24653 -12.80956,-7.3082 -17.14124,-5.14237 -6.2239,3.11196 -9.58301,11.1418 -16.28415,11.1418 -6.35537,0 -43.32466,-3.34216 -40.28189,-9.42768 5.15244,-10.3049 15.49683,-5.60576 24.85477,-10.28473 13.36657,-6.68329 29.11214,-25.13116 41.13895,-29.14009"
         style="fill:url(#linearGradient3846-6-8);fill-opacity:1;stroke:none" />
      <path
         sodipodi:nodetypes="csssssssssssssssccscssc"
         inkscape:connector-curvature="0"
         id="path4035-4"
         d="m 227.85779,489.82084 c -0.61016,-1.63717 -3.50288,0.42135 -4.22792,-1.13293 -0.64966,-1.3927 2.8365,0.68551 4.22792,1.13293 3.98023,1.27988 5.99062,1.32291 8.98432,4.53175 2.76139,2.95984 9.52491,5.67764 12.15527,8.49702 3.76316,4.0336 4.06014,8.40713 8.45584,10.76291 3.84963,2.06314 43.28841,-2.5747 47.03559,-0.56647 7.92662,4.24812 26.89023,-0.6001 33.29486,2.83235 5.60223,3.00241 19.94807,6.23115 26.95298,6.23115 8.42259,0 17.16624,3.82885 25.36751,-0.56647 3.54634,-1.90059 8.7198,-0.99117 12.15528,-2.83234 1.27032,-0.68081 3.69942,-3.78822 3.69942,-2.26588 0,2.47743 -7.87988,3.34794 -9.51281,5.09822 -2.95614,3.16857 -4.2942,8.56806 -7.39886,11.89584 -0.54754,0.58689 -0.58354,2.38387 -1.05698,3.39881 -1.18106,2.53186 -3.11982,4.47695 -4.22792,5.66468 -1.62562,1.74244 -2.51407,18.55585 -7.39886,23.79169 -37.79207,15.51165 -120.83172,10.48512 -126.83757,-3.96529 -2.57444,-5.51891 -7.15491,-9.67348 -10.0413,-15.86111 -1.25009,-2.67985 -1.38883,-5.80964 -2.64245,-8.49703 -0.24971,-0.53532 1.25443,-4.60021 1.58547,-5.66469 1.64869,-5.30149 -0.14553,-17.30604 -2.11396,-21.5258 -2.27442,-4.87573 -9.31832,-16.33698 -8.45583,-20.95934 z"
         style="opacity:0.69547323;fill:url(#linearGradient4160);fill-opacity:1;stroke:none" />
      <path
         inkscape:connector-curvature="0"
         id="path3813-79-2-6"
         d="m 337.45727,460.51378 c -2.94142,3.67956 -2.10618,5.39077 -1.35435,7.87914 2.56591,8.49247 31.31293,20.19571 32.66731,24.6783 1.54238,5.10484 17.38823,18.40251 21.96274,23.24386 1.23719,1.30936 5.57149,2.98821 6.08779,4.69681 4.57769,15.15086 -32.1648,17.45896 -32.47736,28.48752 -0.21396,7.55028 -9.93347,4.24281 -16.5155,4.05627 -7.15515,-0.20277 -32.0803,-7.11459 -35.45611,-6.09463 -3.53125,1.06694 -10.23988,-9.33876 -15.00101,-9.4737 -12.17691,-0.34507 -23.63404,0.5967 -35.29593,-11.74544 -3.9929,-4.22581 -11.56043,-18.42478 -18.70039,-18.62713 -10.25896,-0.29071 -20.22003,7.80754 -28.9313,3.13888 -8.26176,-4.42775 -53.99215,-34.52877 -45.79692,-40.31986 13.8774,-9.80634 24.05088,3.50925 39.47573,3.94639 22.03231,0.62437 55.35355,-12.38739 73.78103,-9.21986 16.89061,2.90337 39.12686,13.3892 52.3285,9.40045 1.12875,-0.34103 4.02439,-6.30482 5.29395,-7.20194"
         style="fill:#23a500;fill-opacity:1;stroke:none" />
      <path
         sodipodi:nodetypes="cscsssssssssc"
         inkscape:connector-curvature="0"
         id="path3813-7-7-7-4"
         d="m 332.59782,488.15197 c 1.04575,3.46118 11.78951,12.47721 14.89112,15.75973 0.83882,0.88776 3.77772,2.02574 4.1276,3.18451 3.10376,10.27255 -21.80828,11.83747 -22.02019,19.31503 -0.14507,5.11921 -6.73506,2.87669 -11.1978,2.75022 -4.8513,-0.13748 -21.75098,-4.82381 -24.03984,-4.13227 -2.39424,0.72342 -6.94281,-6.33184 -10.17094,-6.42332 -8.25615,-0.23397 -16.02428,0.40457 -23.93124,-7.96361 -2.70725,-2.86516 -7.83816,-12.49231 -12.67918,-12.62951 -6.95574,-0.19711 -13.70953,5.29364 -19.61591,2.12822 -5.60162,-3.0021 -36.6076,-23.4111 -31.05108,-27.33756 9.40909,-6.64887 16.3069,2.37934 26.76519,2.67572 14.93829,0.42333 37.53067,-8.39886 50.0248,-6.25122"
         style="fill:url(#linearGradient3846-6-8-9);fill-opacity:1;stroke:none" />
    </g>
    <path
       style="fill:#924d0e;fill-opacity:1;stroke:none"
       d="m 383.88155,877.06683 -124.62644,0.82332 c 4.21733,4.21735 -5.64144,14.20975 -2.13454,17.71666 1.30587,1.30586 0.77176,14.52649 -1.67714,19.42428 -3.34697,6.69396 -3.16104,13.28485 -8.08074,18.20455 -2.95241,2.9524 -9.64842,3.32623 -11.15408,8.97155 -16.07134,23.17843 -44.05984,15.772 -62.06362,31.54579 -3.39203,3.39202 -17.86816,16.87226 -22.98892,19.43265 l 7.92828,-3.96414 25.65857,-2.95709 c 15.3669,-3.24164 43.1218,10.48581 54.23409,1.34094 6.36955,-6.36956 20.20994,3.48341 25.09605,-1.4027 11.17471,-11.17471 40.24862,-7.0453 51.5948,-1.3722 6.17222,3.08611 13.47002,14.87271 18.11307,19.51576 4.75918,4.7592 21.60132,-9.06853 22.29066,-9.75788 3.48998,-3.48998 -4.64558,-17.67557 -4.17759,-18.14356 4.60678,-4.60678 11.16058,-0.65606 11.16058,-4.17759 0,-0.57409 24.11351,1.40269 27.87095,1.40269 6.14113,0 63.65889,10.20963 68.30517,12.53278 5.37944,2.68971 13.97631,-7.64866 20.91846,-4.17759 12.54182,6.27092 21.49136,-0.43691 38.33018,-4.1776 -3.41301,-3.44898 -14.25494,-2.42349 -17.41172,-5.58028 -9.49707,-9.49706 -27.18034,-11.00065 -25.09605,-10.45923 -7.96011,-0.69699 -50.45457,-4.30882 -59.94999,-9.05654 -6.40749,-3.20373 -5.27282,-8.04771 -9.75788,-12.53278 -3.20241,-3.20241 -12.23566,-1.07508 -15.33817,-4.17759 -7.63212,-7.63212 -6.81728,-54.73436 -7.04398,-58.9742 z"
       id="path4297"
       inkscape:connector-curvature="0"
       sodipodi:nodetypes="ccsssccccccssssssssscscsssc" />
    <path
       style="fill:none;stroke:url(#radialGradient4590);stroke-width:11.70945835;stroke-linecap:butt;stroke-linejoin:miter;stroke-miterlimit:4;stroke-opacity:1;stroke-dasharray:none"
       d="m 182.53086,983.12818 c 3.20901,-0.83732 22.41797,0.12651 30.55655,-3.94278 2.90446,-1.45223 10.13061,0.87611 12.32119,1.97139 6.68026,3.34013 43.82014,-5.37805 46.8205,-8.37841 1.66285,-1.66285 23.62149,1.05608 28.09231,-7.88556 2.45911,-4.91822 0.67648,-11.70275 3.44992,-17.24966 0.54476,-1.08951 -2.48922,-44.87411 -3.94277,-46.32766 -0.7491,-0.74909 0.49285,-3.23538 0.49285,-3.44993 0,-1.51024 0.80854,-4.08134 1.47854,-5.42132 0.4056,-0.81119 -0.49285,-18.00064 -0.49285,-20.6996"
       id="path4382"
       inkscape:connector-curvature="0" />
    <path
       style="fill:none;stroke:url(#radialGradient4587);stroke-width:9.75788212;stroke-linecap:butt;stroke-linejoin:miter;stroke-miterlimit:4;stroke-opacity:1;stroke-dasharray:none"
       d="m 504.36026,974.74978 c -10.68664,4.35026 -20.38433,1.47854 -31.54225,1.47854 -9.89025,0 -20.42938,2.59934 -28.58515,-1.47854 -4.43135,-2.21569 -10.6885,0.81634 -15.27826,-1.47855 -5.84531,-2.92265 -17.06885,0.0905 -23.16384,-2.95708 -2.79636,-1.39818 -7.56099,0.90156 -10.34979,-0.49285 -4.43051,-2.21525 -23.60372,-2.41127 -26.12092,-4.92847 -1.09005,-1.09005 -3.02213,-2.98961 -4.92848,-3.94279 -1.31342,-0.6567 -3.45553,-0.49844 -4.43562,-1.47853 -2.46362,-2.46363 -1.49791,-17.76188 -7.88556,-24.14953 -0.64034,-0.64034 0.90557,-1.6388 0.49284,-2.46424 -1.30799,-2.61599 -2.18258,-5.13968 -3.94278,-6.89986 -3.13955,-3.13955 -0.40887,-22.83893 0.98571,-25.62807 0.54361,-1.08722 0,-13.88634 0,-16.26396 0,-2.52721 -0.18706,-7.05277 1.47854,-7.88556"
       id="path4384"
       inkscape:connector-curvature="0" />
    <path
       style="opacity:0.47325104;fill:#b06117;fill-opacity:1;stroke:none"
       d="m 320.0353,874.70174 c 1.10093,-1.29309 1.74169,-2.69394 2.71067,-1.72496 3.0378,3.03779 1.97139,15.55035 1.97139,20.20674 0,3.18219 2.05022,6.83097 1.23212,10.10337 -0.85742,3.42966 -2.26772,6.65653 -2.95709,10.10337 -0.84204,4.21019 -0.005,9.13987 -0.98569,14.04616 -0.55608,2.7804 1.64542,5.49304 0.98569,8.13199 -0.74645,2.98579 -1.62031,7.17669 -0.98569,10.34979 0.51803,2.59016 1.82252,5.07226 2.46423,7.63913 0.7571,3.02839 -1.70465,5.74901 -0.9857,8.62483 1.12231,4.48922 4.575,6.54639 7.63915,9.61053 4.047,4.047 0.15893,13.77057 7.63913,16.26397 0.79779,0.26593 1.61459,1.78016 2.71066,1.23212 1.79624,-0.89813 -1.69585,-5.27577 -1.97139,-6.65344 -1.08059,-5.40295 2.80953,-11.08831 0.73927,-16.26397 -0.81399,-2.03497 -1.97786,-3.95573 -2.95708,-5.91417 -1.69111,-3.38221 -2.24429,-7.60112 -4.18921,-10.84264 -0.99517,-1.65862 -2.5673,-3.96526 -2.95709,-5.91418 -0.5608,-2.80403 -1.39995,-8.14264 -2.21781,-10.59622 -1.63622,-4.90865 4.62324,-12.06362 3.20352,-17.7425 -1.21565,-4.8626 -1.4717,-9.82271 -2.46424,-14.78543 -0.68217,-3.41085 -1.72497,-6.58881 -1.72497,-10.10337 0,-2.05628 2.70084,-8.64449 1.97139,-10.10338 -0.95171,-1.90342 -1.65085,-4.05765 -3.69636,-5.42132 -1.482,-0.988 -3.05714,-2.21781 -2.95709,-2.21781 0.25976,0 -0.55559,0.0627 -0.73926,0.24643 -0.42195,0.42194 -0.63457,0.88098 -1.47855,1.72496 z"
       id="path4404"
       inkscape:connector-curvature="0" />
    <path
       style="opacity:0.87242856;fill:url(#linearGradient4583);fill-opacity:1;stroke:none"
       d="m 265.1229,846.81795 c -1.21437,2.22969 -3.45493,5.22032 -4.07515,9.23874 -2.55604,16.56088 -0.91868,51.6293 -5.68273,61.15741 -1.0089,2.01781 -0.60962,7.23105 -2.09097,8.7124 -1.57148,1.57147 -1.17237,5.70281 -2.78797,7.31841 -1.12203,1.12203 -3.1992,1.45672 -4.53044,2.78796 -2.16572,2.16572 -3.44006,4.48555 -5.92443,6.96992 -3.38698,3.38698 -10.84933,4.9249 -13.93984,8.0154 -2.5315,2.5315 -8.03229,8.0323 -11.50035,11.50036 -2.6471,2.6471 -9.51848,0.57729 -13.24284,2.43947 -1.39743,0.69872 -4.9506,0.42016 -5.92443,1.39399 -0.84332,0.84331 -2.74863,0.65766 -3.48496,1.39398 -3.73262,3.73262 -12.09275,4.42584 -14.63683,6.96992 -0.86231,0.86231 4.01817,-1.04549 8.01541,-1.04549 4.2472,0 9.00386,0.75402 11.84886,-2.09098 1.57147,-1.57147 6.7483,-0.12687 8.36389,-1.74247 2.29774,-2.29774 9.73528,-3.46235 10.45488,-4.18196 1.45305,-1.45306 3.80325,-2.59861 5.57594,-3.48495 1.16193,-0.58097 2.74472,-0.65376 3.48495,-1.39399 2.49978,-2.49977 6.14632,-2.66136 8.7124,-5.22743 4.3373,-4.33731 8.1784,-8.8754 11.84885,-12.54585 1.45207,-1.45207 3.77537,-2.03289 5.22744,-3.48496 4.71494,-4.71494 4.64912,-14.407 9.40938,-19.16727 0.82633,-0.82632 1.0132,-3.10417 1.74249,-3.83345 10.26968,-13.98799 9.39403,-54.1682 3.13645,-69.69916 z"
       id="path4410"
       inkscape:connector-curvature="0"
       sodipodi:nodetypes="csssssssssssssssssssssscc" />
    <path
       style="opacity:0.87242856;fill:url(#linearGradient4580);fill-opacity:1;stroke:none"
       d="m 364.82063,849.08297 c 1.79889,2.22969 5.11792,5.22032 6.03668,9.23874 3.78635,16.56088 1.36086,51.6293 8.41803,61.15741 1.49451,2.01781 0.90306,7.23105 3.09742,8.7124 2.32789,1.57147 1.73668,5.7028 4.12994,7.31841 1.6621,1.12203 4.73909,1.45672 6.7111,2.78796 3.20816,2.16572 5.09589,4.48555 8.77607,6.96993 5.01726,3.38698 16.07152,4.9249 20.6496,8.0154 3.75001,2.5315 11.89854,8.03229 17.0359,11.50036 3.92124,2.6471 14.10006,0.57729 19.61711,2.43947 2.07005,0.69872 7.33349,0.42016 8.77607,1.39399 1.24923,0.84331 4.07165,0.65766 5.1624,1.39398 5.52926,3.73262 17.91343,4.42584 21.68207,6.96992 1.27737,0.86231 -5.95227,-1.04549 -11.87352,-1.04549 -6.29153,0 -13.33775,0.75402 -17.55215,-2.09098 -2.32787,-1.57147 -9.99651,-0.12687 -12.38974,-1.74248 -3.40373,-2.29773 -14.42124,-3.46235 -15.4872,-4.18195 -2.15247,-1.45306 -5.63389,-2.59861 -8.25984,-3.48495 -1.72122,-0.58097 -4.06586,-0.65376 -5.16239,-1.39399 -3.70301,-2.49978 -9.10476,-2.66136 -12.906,-5.22744 -6.42499,-4.33731 -12.11496,-8.87539 -17.55213,-12.54584 -2.15101,-1.45208 -5.5926,-2.0329 -7.7436,-3.48497 -6.98442,-4.71494 -6.88692,-14.40701 -13.93846,-19.16727 -1.22407,-0.82632 -1.50089,-3.10417 -2.58122,-3.83345 -15.21285,-13.988 -13.91573,-54.1682 -4.64614,-69.69916 z"
       id="path4410-6"
       inkscape:connector-curvature="0"
       sodipodi:nodetypes="csssssssssssssssssssssscc" />
    <path
       style="opacity:0.17695474;fill:#141414;fill-opacity:1;stroke:none"
       d="m 233.06778,943.08624 c -13.42872,6.02067 -37.31078,1.82577 -46.32766,10.84265 -1.99235,1.99233 -10.01881,0.57377 -12.81404,1.97138 -23.45095,-3.95566 -19.5446,10.52943 -32.52793,24.64237 -9.42783,7.28022 -19.22143,12.16936 -18.72821,20.69956 0.003,20.0576 36.82774,19.9953 48.29905,29.5709 23.911,23.911 38.83845,0 68.01296,0 23.06755,0 30.15008,8.8712 43.37057,8.8712 13.9615,0 46.95284,-5.2889 55.19892,2.9571 21.85145,-7.674 21.78463,3.2361 35.48502,-6.8998 6.67089,-6.6709 15.29601,6.3892 20.6996,0.9857 5.19949,-5.1995 19.09491,-1.3525 23.65668,-5.9142 4.71914,-4.7192 29.86454,-5.9142 33.51362,-5.9142 12.07875,0 38.6945,-8.8428 51.00904,-12.1272 22.84307,-6.0925 27.20379,-19.75795 38.68919,-31.24336 2.84576,-2.84576 -12.94227,-8.99949 -14.78542,-10.84264 -4.39896,-4.39896 -8.13421,-8.13421 -11.82834,-11.82834 -2.40746,-2.40747 -7.60439,-1.69022 -10.84265,-4.92847 -5.44121,-5.44122 -23.38605,-0.71508 -28.58515,-5.91418 -7.98408,-7.98407 -37.02369,-8.43854 -39.42779,-10.84264 -3.01037,-3.01037 -11.39289,-0.55025 -14.78543,-3.94278 -1.98034,-1.98035 -15.14053,9.64657 -22.95147,8.1132 -13.83807,-2.71657 -32.06587,-28.77511 -41.6795,-20.41427 -6.76773,5.8858 5.22706,37.43783 2.94939,46.50489 -3.52868,14.04715 -13.57083,17.20444 -20.80757,17.20444 -10.12393,0 -1.16994,1.55647 -12.594,-8.82087 -5.76831,-5.23978 -22.96278,9.57398 -32.93673,2.72735 -5.58217,-3.83188 16.98616,-30.34357 12.98953,-40.4007 -5.51448,-13.87666 -44.70252,8.66703 -48.78464,8.66703 -5.07488,0 -13.80934,-8.45336 -16.56717,-5.69552 -1.06294,1.06294 -12.79066,2.40581 -11.82835,0 0.65713,-1.64281 3.28565,1.31426 4.92848,1.9714 z"
       id="path4494-9"
       inkscape:connector-curvature="0"
       sodipodi:nodetypes="csccccssccsssssssssssssssssssssc" />
  </g>
</svg>
